<?xml version="1.0" encoding="utf-8" ?>
<svg baseProfile="full" height="200mm" version="1.1" viewBox="0,0,200,200" width="200mm" xmlns="http://www.w3.org/2000/svg" xmlns:ev="http://www.w3.org/2001/xml-events" xmlns:xlink="http://www.w3.org/1999/xlink"><defs /><rect fill="#1a1a1a" height="200" width="200" x="0" y="0" /><rect fill="#1a1a1a" height="200" width="180" x="10" y="0" /><text alignment-baseline="middle" fill="#e1ed5e" style="dominant-baseline: central; font-size:9.0px; font-family:Arial;" text-anchor="middle" x="100.0" y="100.0">2026</text><line stroke="#e1ed5e" stroke-width="0.3" x1="100.0" x2="100.0" y1="15.0" y2="10.0" /><path d="M 100.0 14.0 a86.0,86.0 0 0,1 42.46469731375804,11.215312516191453" fill="none" id="id121" stroke="none" /><text fill="#e1ed5e" style="font-size:6.75px; font-family:Arial;" text-anchor="middle"><textPath startOffset="22.20632615414155" xlink:href="#id121">January</textPath></text><path d="M 100.0 79.0 l 0.0 -63.0 a84.0,84.0 0 0,0 1.4459219170901134,0.012445506434235476 l -1.084441437817585 62.990665870174325" fill="#4dd2ff" stroke="none" /><path d="M 100.72285384407766 79.0124445844662 l 0.5949027269842638 -17.272584287582504 a38.28282607753186,38.28282607753186 0 0,0 0.6583901714259713,0.028351665742117317 l -0.8921337307995667 17.25978489531619" fill="#ffc612" stroke="none" /><path d="M 101.08401301168833 79.027996857942 l 0.8047795603436403 -15.569775718747115 a36.59056080045981,36.59056080045981 0 0,0 0.6287268090975013,0.037926518103200656 l -1.0726684182807535 15.553615931263609" fill="#ffaf10" stroke="none" /><path d="M 101.80526077348638 79.07773832637324 l 1.3743259808858677 -15.927897076845722 a36.987078444554164,36.987078444554164 0 0,0 0.633843816882719,0.06019110789604894 l -1.6482949248588308 15.901880424434495" fill="#ffb410" stroke="none" /><path d="M 102.88285421437855 79.19881850522331 l 3.4169554165965352 -24.654978883663865 a45.890632134859885,45.890632134859885 0 0,0 0.7815196932934968,0.11517568756414309 l -3.840844090318688 24.592508711938756" fill="#d8ff1c" stroke="none" /><path d="M 103.59715602781102 79.31037775812273 l 4.742454231806827 -27.276989320695115 a48.686188227022114,48.686188227022114 0 0,0 0.8244307651634082,0.15065945270477965 l -5.211280118073136 27.191314386639597" fill="#b6ff1f" stroke="none" /><path d="M 103.95276090670814 79.375362276772 l 4.523443623075957 -23.602334719780313 a45.031890196896576,45.031890196896576 0 0,0 0.7600387871889626,0.15245663063642337 l -4.929048819732045 23.52097413306668" fill="#e2ff1b" stroke="none" /><path d="M 104.307194497241 79.44645832069477 l 4.913082035010769 -23.444782083818975 a44.954043125128266,44.954043125128266 0 0,0 0.7559927337311964,0.16523073025123955 l -5.315917492895493 23.356737855471867" fill="#e3ff1b" stroke="none" /><path d="M 105.36241919743992 79.69619591428918 l 4.283751864366615 -16.21963061884862 a37.775784555345126,37.775784555345126 0 0,0 0.6272617052704376,0.17145431899860072 l -4.562311458860764 16.143489759023723" fill="#ffbf11" stroke="none" /><path d="M 105.71112130821622 79.79150937346287 l 8.599970483963883 -30.430525554352393 a52.622403100320255,52.622403100320255 0 0,0 0.8695470782243897,0.25384463668457335 l -9.1225077799117 30.27798258874912" fill="#89ff24" stroke="none" /><path d="M 106.0581310904928 79.89281104454417 l 7.44650364477507 -24.71525518454957 a46.81267625352034,46.81267625352034 0 0,0 0.7695438373939445,0.2391010162257535 l -7.870832854879732 24.583414033441294" fill="#ccff1d" stroke="none" /><path d="M 106.74666289553966 80.11325718540242 l 7.708081619138087 -22.720660440151544 a44.99255995270121,44.99255995270121 0 0,0 0.7312747807199518,0.25512741203647454 l -8.098038403921313 22.584612174942862" fill="#e3ff1b" stroke="none" /><path d="M 107.08798089147638 80.2323363322302 l 8.101308609812605 -22.5937324492739 a45.00224879424418,45.00224879424418 0 0,0 0.7269313414755898,0.26773494789141106 l -8.489022277060773 22.450934233576167" fill="#e2ff1b" stroke="none" /><path d="M 107.4271985657038 80.35727306442388 l 8.476496861503184 -22.417808241942065 a44.966833862977374,44.966833862977374 0 0,0 0.7216466680231634,0.2799876957393295 l -8.861126694526016 22.26857784231219" fill="#e3ff1b" stroke="none" /><path d="M 108.43124777332544 80.76684994638697 l 7.3778473894703955 -16.830159631090254 a39.37625928502031,39.37625928502031 0 0,0 0.6184283057184845,0.2774707540234606 l -7.6664578136556605 16.70066854655026" fill="#ffd413" stroke="none" /><path d="M 109.08828744355905 81.06846463323043 l 9.576113913572799 -19.947711860665198 a43.12720421024413,43.12720421024413 0 0,0 0.666476997130138,0.32703736801393934 l -9.918062177713368 19.779919332516428" fill="#faff18" stroke="none" /><path d="M 110.05341064243156 81.56283822128135 l 9.412510862335397 -17.261802157009203 a40.66126075411517,40.66126075411517 0 0,0 0.6116148942945542,0.3403630264935235 l -9.708249845701985 17.0972237329555" fill="#ffe515" stroke="none" /><path d="M 110.36928655335952 81.73862282372117 l 9.93260949527414 -17.492344087947274 a41.11563653173207,41.11563653173207 0 0,0 0.6124335930425575,0.35476106694341214 l -10.232239820782025 17.31877886361381" fill="#ffeb16" stroke="none" /><line stroke="#e1ed5e" stroke-width="0.3" x1="143.23703022742887" x2="145.7803849466894" y1="26.81831364943548" y2="22.513508569990506" /><path d="M 143.74570117128098 25.957352633546492 a86.0,86.0 0 0,1 28.547481713284135,27.462654790039103" fill="none" id="id122" stroke="none" /><text fill="#e1ed5e" style="font-size:6.75px; font-family:Arial;" text-anchor="middle"><textPath startOffset="19.985693538727396" xlink:href="#id122">February</textPath></text><path d="M 110.68208982089419 81.91981866633111 l 15.821970551040136 -26.779787608528864 a52.1045298385283,52.1045298385283 0 0,0 0.7682637599953979,0.4628703192353448 l -16.280596377253172 26.5034706798349" fill="#8fff24" stroke="none" /><path d="M 111.2981086023043 82.29822771554956 l 9.072892105006908 -14.21532361367674 a37.863949614211144,37.863949614211144 0 0,0 0.5463821555785029,0.35538215259668765 l -9.316241286369692 14.057042536920523" fill="#ffc011" stroke="none" /><path d="M 111.60114157652 82.49532879139004 l 4.985768208335192 -7.522900451959448 a30.025071514250598,30.025071514250598 0 0,0 0.42835097503701636,0.2892244904625441 l -5.11452387777875 7.435964049198234" fill="#ff5407" stroke="none" /><path d="M 114.68862486808459 84.99185889309783 l 14.21243426817649 -14.521592108518433 a41.31920089947984,41.31920089947984 0 0,0 0.5040238112448048,0.5018593728210798 l -14.460293879588619 14.274796885047236" fill="#ffed16" stroke="none" /><path d="M 115.68641384162765 86.03803664274999 l 8.173192107636455 -7.274690689069854 a31.94176374493484,31.94176374493484 0 0,0 0.36201903156993304,0.413850334401783 l -8.297203002784237 7.132924798465123" fill="#ff6f0a" stroke="none" /><path d="M 117.45458315368197 88.32363383020206 l 14.221604587894683 -9.513642418627896 a38.11033106412448,38.11033106412448 0 0,0 0.3600579957497948,0.5483930296861395 l -14.383259219002404 9.267431324964083" fill="#ffc312" stroke="none" /><line stroke="#e1ed5e" stroke-width="0.3" x1="172.23445277983987" x2="176.4835382374775" y1="55.19839476539836" y2="52.563006222186495" /><path d="M 173.08426987136738 54.67131705675599 a86.0,86.0 0 0,1 12.851231095245387,41.99856678651699" fill="none" id="id123" stroke="none" /><text fill="#e1ed5e" style="font-size:6.75px; font-family:Arial;" text-anchor="middle"><textPath startOffset="22.20632615414155" xlink:href="#id123">March</textPath></text><path d="M 117.84615892207809 88.93136811851018 l 30.12115026367275 -18.681886985953785 a56.44427449621028,56.44427449621028 0 0,0 0.5049994026206532,0.8300862372559695 l -30.438265464579626 18.160632975490735" fill="#5fff29" stroke="none" /><path d="M 118.89224826269711 90.83032412892265 l 13.599304039174411 -6.600654849411741 a36.116537791140146,36.116537791140146 0 0,0 0.2666463453009923,0.5616252065000886 l -13.710908578317161 6.365587227271113" fill="#ffa90f" stroke="none" /><path d="M 119.34039704204932 91.81776055985345 l 13.938219210504645 -5.896768649663407 a36.13426031452261,36.13426031452261 0 0,0 0.23741639446727864,0.5749226309020014 l -14.037657291858121 5.655971448308103" fill="#ffa90f" stroke="none" /><path d="M 120.08093135843002 93.85539295169968 l 20.213247737840074 -6.185094819659949 a42.13837226560932,42.13837226560932 0 0,0 0.20626553210554452,0.6954248341712018 l -20.31671916705732 5.836240598742218" fill="#fff817" stroke="none" /><path d="M 120.28053869075195 94.5502522615342 l 16.34991068200478 -4.393516864717443 a37.92993117972104,37.92993117972104 0 0,0 0.16400842300122132,0.6319913570700239 l -16.4231154368763 4.111429082098569" fill="#ffc111" stroke="none" /><path d="M 120.37134235888165 94.90015583598534 l 14.370067789097039 -3.5974608378603 a35.813526681488874,35.813526681488874 0 0,0 0.1445624937892495,0.5993048658207186 l -14.429863083147108 3.3495707403801758" fill="#ffa50f" stroke="none" /><path d="M 120.67395015179393 96.31383870115 l 14.979451870180249 -2.67083336065088 a36.215693515952935,36.215693515952935 0 0,0 0.10414277691345367,0.6146565645277898 l -15.023206508613924 2.412591007807252" fill="#ffaa0f" stroke="none" /><path d="M 120.78858239683441 97.02765380044208 l 21.349643187326173 -3.052566528029809 a42.56676671720151,42.56676671720151 0 0,0 0.09746573575879926,0.7262329405897915 l -21.399024922142807 2.684615245375353" fill="#fffd17" stroke="none" /><path d="M 120.83666639777658 97.38593545837742 l 19.116209505744724 -2.398224576102442 a40.26605686135455,40.26605686135455 0 0,0 0.08035886804746599,0.6884657070969942 l -19.15465872679578 2.068815130680595" fill="#ffe015" stroke="none" /><path d="M 120.94382443527127 98.46500227214037 l 25.7304410150802 -1.8858145329207094 a46.799455251673365,46.799455251673365 0 0,0 0.05196836370401551,0.8039275847588978 l -25.75908996978863 1.4426278839087763" fill="#cdff1d" stroke="none" /><path d="M 120.96714384426684 98.82574320788733 l 24.045213146605345 -1.3466428744379824 a45.08289273108522,45.08289273108522 0 0,0 0.036724077382152276,0.775187230785789 l -24.064830832220995 0.9325445370291936" fill="#e1ff1b" stroke="none" /><path d="M 120.98425023603335 99.18683210126433 l 13.606815185576103 -0.527282375518938 a34.61702780337755,34.61702780337755 0 0,0 0.017948608369552612,0.59562693108472 l -13.6138754884013 0.29298529700921894" fill="#ff940d" stroke="none" /><line stroke="#e1ed5e" stroke-width="0.3" x1="184.98032266829074" x2="189.97916517819016" y1="98.17113171792111" y2="98.06355123074" /><path d="M 185.9800911702706 98.14961562048488 a86.0,86.0 0 0,1 -9.607161424134198,41.387399972396054" fill="none" id="id124" stroke="none" /><text fill="#e1ed5e" style="font-size:6.75px; font-family:Arial;" text-anchor="middle"><textPath startOffset="21.466115282336823" xlink:href="#id124">April</textPath></text><path d="M 120.99980553446 99.90962569577887 l 20.431912011716822 -0.08793033006597033 a41.432101218364295,41.432101218364295 0 0,0 -0.0030693348650949926,0.7132053280259171 l -20.430398379562224 -0.2637844761636315" fill="#ffef16" stroke="none" /><path d="M 120.95626037817324 101.35467743843564 l 14.372653588251735 0.9290927481858725 a35.40265199547004,35.40265199547004 0 0,0 -0.04454570943472244,0.6077908135058653 l -14.354531320152676 -1.176356698188508" fill="#ff9f0e" stroke="none" /><path d="M 120.92983693683757 101.71520430193887 l 15.910302067531584 1.3038524205291977 a36.9636381509548,36.9636381509548 0 0,0 -0.057426362749666705,0.6336951276809443 l -15.88550110850484 -1.5775289367587126" fill="#ffb410" stroke="none" /><path d="M 120.8583938346157 102.4346265915055 l 20.900483479178934 2.439539365168388 a42.04237538819317,42.04237538819317 0 0,0 -0.0900877828641024,0.7180882675871183 l -20.855394187067983 -2.798945387042901" fill="#fff717" stroke="none" /><path d="M 120.64145759157962 103.86396538481128 l 14.143312702498957 2.647549014722246 a35.38898224288379,35.38898224288379 0 0,0 -0.11723875555049798,0.5977978887475845 l -14.095644013972795 -2.890610630537775" fill="#ff9f0e" stroke="none" /><path d="M 120.5718875245553 104.21870165774334 l 11.942582025625306 2.449079625246025 a33.19111383137668,33.19111383137668 0 0,0 -0.11959226351702618,0.5586952408369765 l -11.898655723383838 -2.6542886854991705" fill="#ff800b" stroke="none" /><path d="M 120.49622156327973 104.57218783832717 l 12.833227925618027 2.862768070048234 a34.14865696616008,34.14865696616008 0 0,0 -0.13291866164979094,0.5726101155827253 l -12.782048698037684 -3.0832468429795243" fill="#ff8e0d" stroke="none" /><path d="M 120.13307415673323 105.97154293290107 l 16.605745777443126 4.9253245217734944 a38.320785619302995,38.320785619302995 0 0,0 -0.19301491309782165,0.6307839037718124 l -16.51850409183917 -5.210435398097364" fill="#ffc612" stroke="none" /><path d="M 120.02730092923936 106.31721596034902 l 14.670237060287738 4.627436119664538 a36.382750743823934,36.382750743823934 0 0,0 -0.19353500892521608,0.5956395108362075 l -14.588409800346275 -4.879274530478541" fill="#ffac10" stroke="none" /><path d="M 119.9155931802556 106.66101706037122 l 18.449207244975206 6.170566103496146 a40.45376914650889,40.45376914650889 0 0,0 -0.22655877021596563,0.6584858360571711 l -18.34025764381601 -6.487224642642617" fill="#ffe215" stroke="none" /><path d="M 119.67450827220406 107.3425965602758 l 15.527357967516254 5.794865295999773 a37.5734519412877,37.5734519412877 0 0,0 -0.23135534625842658,0.6039958041955328 l -15.425308341664321 -6.061284667028449" fill="#ffbc11" stroke="none" /><path d="M 119.12269723197855 108.67885076344098 l 19.25939746458766 8.7408922685566 a42.150120291607756,42.150120291607756 0 0,0 -0.3055389624589138,0.6581037431143594 l -19.106083885288914 -9.07111607894979" fill="#fff817" stroke="none" /><path d="M 118.97047184881838 109.00673069616215 l 20.693229553756 9.824655248949599 a43.90706441526617,43.90706441526617 0 0,0 -0.33002795855036804,0.6799553456661245 l -20.52104833859092 -10.179399550580998" fill="#f0ff19" stroke="none" /><path d="M 118.81262510543309 109.33194174019688 l 17.101408736500048 8.483098403859806 a40.08981768646335,40.08981768646335 0 0,0 -0.3119776825879904,0.615561565076521 l -16.952852384125787 -8.776214180639021" fill="#ffdd14" stroke="none" /><line stroke="#e1ed5e" stroke-width="0.3" x1="174.80103733775053" x2="179.2010983576182" y1="140.37084112569926" y2="142.7455964860345" /><path d="M 175.68104954172406 140.8457921977663 a86.0,86.0 0 0,1 -30.038265399797805,32.042727171017184" fill="none" id="id125" stroke="none" /><text fill="#e1ed5e" style="font-size:6.75px; font-family:Arial;" text-anchor="middle"><textPath startOffset="22.206326154141568" xlink:href="#id125">May</textPath></text><path d="M 118.12598468904814 110.60418214915192 l 15.592037493793915 9.121755783038767 a39.06427584414267,39.06427584414267 0 0,0 -0.3445452839683334,0.577477714138633 l -15.432711334127355 -9.388795591063504" fill="#ffd013" stroke="none" /><path d="M 117.94076556474637 110.91462005526583 l 5.540946256248944 3.370944395619485 a27.48578071884932,27.48578071884932 0 0,0 -0.24938157777491968,0.4020825081961972 l -5.482100038806061 -3.4658232351809555" fill="#ff2f04" stroke="none" /><path d="M 117.75023020441432 111.22182372390056 l 11.264041454763406 7.121208354392379 a34.32629874801313,34.32629874801313 0 0,0 -0.32004392157749606,0.4967152735316411 l -11.139792669808859 -7.314045227845473" fill="#ff900d" stroke="none" /><path d="M 117.55443506779139 111.5257021239791 l 17.557352961667743 11.527617923349368 a42.00349061483135,42.00349061483135 0 0,0 -0.4020271988329059,0.6009761144885551 l -17.356322657424116 -11.82813095204373" fill="#fff617" stroke="none" /><path d="M 116.71984013943494 112.70617746262583 l 16.715999633528423 12.703258885104304 a41.995176351964844,41.995176351964844 0 0,0 -0.44233555803712427,0.5717783361962612 l -16.49485725827323 -12.989115215413818" fill="#fff617" stroke="none" /><path d="M 116.498646956653 112.99209946851258 l 10.534486847881979 8.295534860343803 a34.408628258229015,34.408628258229015 0 0,0 -0.3704368819023224,0.46217696744758546 l -10.390132053924804 -8.47563966136964" fill="#ff910d" stroke="none" /><path d="M 116.27256486870786 113.27417163493432 l 12.759323220060084 10.408282144530142 a37.46610659002636,37.46610659002636 0 0,0 -0.4119558990500934,0.4962274184662576 l -12.578271321116448 -10.62637082011017" fill="#ffbb11" stroke="none" /><path d="M 115.80600337817218 113.82643327865902 l 16.814253771288733 14.708408718943911 a43.33957065229327,43.33957065229327 0 0,0 -0.4960134412532991,0.5572763594504698 l -16.558581480387097 -14.995659248135247" fill="#f7ff18" stroke="none" /><path d="M 114.81725581225074 114.88116024355365 l 16.900730895974213 16.97362101882799 a44.952839399723295,44.952839399723295 0 0,0 -0.5530270571315137,0.5412533721694374 l -16.606053886466903 -17.26202449392" fill="#e3ff1b" stroke="none" /><path d="M 113.75828350139079 115.86535959552629 l 11.288601255599334 13.01744641564396 a38.23039260992275,38.23039260992275 0 0,0 -0.5008809929049272,0.4268616485346564 l -11.06285478611736 -13.209832454401562" fill="#ffc512" stroke="none" /><path d="M 113.48314897796784 116.09983520530334 l 9.710691171213295 11.595253292950824 a36.12439823432214,36.12439823432214 0 0,0 -0.48016183978793936,0.3951405048938535 l -9.509659202880664 -11.760688916701856" fill="#ffa90f" stroke="none" /><path d="M 112.34349029814194 116.9893568818739 l 1.986725609308911 2.73449320958986 a24.380019491064647,24.380019491064647 0 0,0 -0.34163683251104143,0.24374880897613332 l -1.9393614489489848 -2.768286280410213" fill="#ff0000" stroke="none" /><path d="M 111.45004920935366 117.60387380957326 l 8.208870477641018 12.620724799110361 a36.05550560338528,36.05550560338528 0 0,0 -0.5231794616071601,0.3339178857771784 l -7.9904092139869265 -12.76015711371135" fill="#ffa80f" stroke="none" /><path d="M 111.1453310114006 117.79835938074945 l 8.048310808008328 12.852622144858202 a36.16460361700243,36.16460361700243 0 0,0 -0.5304500066780957,0.32584571890081004 l -7.825881601397922 -12.98925633058739" fill="#ffa90f" stroke="none" /><line stroke="#e1ed5e" stroke-width="0.3" x1="143.8653032363475" x2="146.44561519142675" y1="172.8068346515853" y2="177.08958963109032" /><path d="M 144.38136562736335 173.6633856474863 a86.0,86.0 0 0,1 -40.68145358897372,12.25698825130547" fill="none" id="id126" stroke="none" /><text fill="#e1ed5e" style="font-size:6.75px; font-family:Arial;" text-anchor="middle"><textPath startOffset="21.466115282336833" xlink:href="#id126">June</textPath></text><path d="M 110.5260780823613 118.17145234162733 l 8.603961715398693 14.853251043477021 a38.165291251842994,38.165291251842994 0 0,0 -0.5713003031346866,0.3243992221419017 l -8.347012645342808 -14.99915343141355" fill="#ffc412" stroke="none" /><path d="M 110.21172684928248 118.3499491758327 l 7.349142641159959 13.20603223544954 a36.11321226489749,36.11321226489749 0 0,0 -0.5457861791916092,0.2976061417821058 l -7.120733650099702 -13.330579028991416" fill="#ffa90f" stroke="none" /><path d="M 109.89434966115114 118.52300852407294 l 7.114660811588783 13.319210192902599 a36.100323129876315,36.100323129876315 0 0,0 -0.5506315200110742,0.2880643868169931 l -6.884338389051213 -13.439703998664308" fill="#ffa90f" stroke="none" /><path d="M 109.2508944713604 118.85261126421891 l 6.630206281535433 13.511850342077071 a36.05090479015797,36.05090479015797 0 0,0 -0.5594539608686767,0.2685718991781781 l -6.396639652666523 -13.62397651775481" fill="#ffa80f" stroke="none" /><path d="M 108.92500713936063 119.00905698771935 l 17.874603287037193 38.0704852344249 a63.05785644387414,63.05785644387414 0 0,0 -0.9865011409579197,0.45285428898828695 l -17.216634150311855 -38.37252659374726" fill="#32ff49" stroke="none" /><path d="M 108.2653958097858 119.30500536409082 l 6.110839811661532 14.272733945004239 a36.525891197244164,36.525891197244164 0 0,0 -0.5801155800748276,0.24248835952004455 l -5.864252772089244 -14.375807347544256" fill="#ffae10" stroke="none" /><path d="M 107.59598834532513 119.57807347666477 l 5.746887673799045 14.812159264175511 a36.887944486388534,36.887944486388534 0 0,0 -0.5939482155137997,0.2245803929787729 l -5.491069237524971 -14.908887907260915" fill="#ffb310" stroke="none" /><path d="M 106.91757812671514 119.82793768551818 l 4.982437937209446 14.281222001588366 a36.12540874346196,36.12540874346196 0 0,0 -0.5888962296619604,0.199785574692862 l -4.735871974610259 -14.36487056317935" fill="#ffa90f" stroke="none" /><path d="M 103.7750983002368 120.6578951692458 l 4.47872132828981 24.50822424578253 a45.91409240606691,45.91409240606691 0 0,0 -0.7786833921118128,0.1353840889381685 l -4.056188964705947 -24.581686913241704" fill="#d7ff1c" stroke="none" /><path d="M 103.41894727170886 120.7198165907248 l 2.7606421969514257 16.730296037838386 a37.95653121523679,37.95653121523679 0 0,0 -0.6455576996145909,0.10082283611515831 l -2.4722486337283174 -16.77533718130065" fill="#ffc112" stroke="none" /><path d="M 102.70371172650421 120.8252237178851 l 3.3713707389876983 25.96783865198845 a47.185774476142726,47.185774476142726 0 0,0 -0.806365737217607,0.0976396610259816 l -2.9238775787187112 -26.022023841739784" fill="#c8ff1d" stroke="none" /><path d="M 101.98527174616119 120.90594882070398 l 1.9375871177657025 20.40380476778125 a41.495596913499845,41.495596913499845 0 0,0 -0.7116607151001674,0.061405081010961635 l -1.5860820849239934 -20.434134101070875" fill="#fff016" stroke="none" /><path d="M 100.90346689309514 120.98055641714683 l 0.6868869293187991 15.951076993428012 a36.96585954165755,36.96585954165755 0 0,0 -0.635952987393059,0.021903506744264254 l -0.41221359025108784 -15.960537298598371" fill="#ffb410" stroke="none" /><line stroke="#e1ed5e" stroke-width="0.3" x1="102.19456741930631" x2="102.32365962044197" y1="184.97166512339345" y2="189.96999836594603" /><path d="M 102.22038585953345 185.97133177190398 a86.0,86.0 0 0,1 -42.740103519485714,-10.115201625700543" fill="none" id="id127" stroke="none" /><text fill="#e1ed5e" style="font-size:6.75px; font-family:Arial;" text-anchor="middle"><textPath startOffset="22.20632615414155" xlink:href="#id127">July</textPath></text><path d="M 100.54218724476979 120.99299961872073 l 0.46453066124951015 17.98620695814336 a38.99220468637475,38.99220468637475 0 0,0 -0.6711121216005645,0.01155380379031543 l -0.15485884975627767 -17.991538239212833" fill="#ffcf13" stroke="none" /><path d="M 100.18074693466247 120.99922214144158 l 0.13057788952353305 15.170570466303737 a36.17113241845577,36.17113241845577 0 0,0 -0.6226496483719666,0.0 l 0.1305778895235226 -15.170570466303737" fill="#ffa90f" stroke="none" /><line stroke="#e1ed5e" stroke-width="0.3" x1="58.666819895761336" x2="56.23545636021788" y1="174.27360380694188" y2="178.64263932499728" /><path d="M 58.180547188652646 175.14741091055294 a86.0,86.0 0 0,1 -31.652253787137756,-30.449443065178592" fill="none" id="id128" stroke="none" /><text fill="#e1ed5e" style="font-size:6.75px; font-family:Arial;" text-anchor="middle"><textPath startOffset="22.20632615414155" xlink:href="#id128">August</textPath></text><line stroke="#e1ed5e" stroke-width="0.3" x1="26.63291911575756" x2="22.317208475507996" y1="142.92168965132927" y2="145.44649492493687" /><path d="M 25.769776987707644 143.4266507060508 a86.0,86.0 0 0,1 -11.730757126820373,-40.83630448921669" fill="none" id="id129" stroke="none" /><text fill="#e1ed5e" style="font-size:6.75px; font-family:Arial;" text-anchor="middle"><textPath startOffset="21.46611528233685" xlink:href="#id129">September</textPath></text><line stroke="#e1ed5e" stroke-width="0.3" x1="15.007084014347285" x2="10.007500721073583" y1="101.09737516637583" y2="101.16192664675087" /><path d="M 14.007167355692545 101.11028546245083 a86.0,86.0 0 0,1 10.666146001902534,-42.60595125391555" fill="none" id="id130" stroke="none" /><text fill="#e1ed5e" style="font-size:6.75px; font-family:Arial;" text-anchor="middle"><textPath startOffset="22.20632615414155" xlink:href="#id130">October</textPath></text><line stroke="#e1ed5e" stroke-width="0.3" x1="26.266209847984243" x2="21.928928074336255" y1="57.711370442889674" y2="55.22380399835377" /><path d="M 25.398753493254645 57.213857153982495 a86.0,86.0 0 0,1 29.58750427330803,-30.492523968695096" fill="none" id="id131" stroke="none" /><text fill="#e1ed5e" style="font-size:6.75px; font-family:Arial;" text-anchor="middle"><textPath startOffset="21.46611528233685" xlink:href="#id131">November</textPath></text><line stroke="#e1ed5e" stroke-width="0.3" x1="56.762969772571076" x2="54.21961505331055" y1="26.818313649435495" y2="22.513508569990535" /><path d="M 56.25429882871897 25.957352633546506 a86.0,86.0 0 0,1 42.265352541879196,-11.944610805530505" fill="none" id="id132" stroke="none" /><text fill="#e1ed5e" style="font-size:6.75px; font-family:Arial;" text-anchor="middle"><textPath startOffset="22.20632615414155" xlink:href="#id132">December</textPath></text></svg>