<?xml version="1.0" encoding="utf-8" ?>
<svg baseProfile="full" height="200mm" version="1.1" viewBox="0,0,200,200" width="200mm" xmlns="http://www.w3.org/2000/svg" xmlns:ev="http://www.w3.org/2001/xml-events" xmlns:xlink="http://www.w3.org/1999/xlink"><defs /><rect fill="#1a1a1a" height="200" width="200" x="0" y="0" /><rect fill="#1a1a1a" height="200" width="180" x="10" y="0" /><text alignment-baseline="middle" fill="#e1ed5e" style="dominant-baseline: central; font-size:9.0px; font-family:Arial;" text-anchor="middle" x="100.0" y="100.0">2021</text><line stroke="#e1ed5e" stroke-width="0.3" x1="100.0" x2="100.0" y1="15.0" y2="10.0" /><path d="M 100.0 14.0 a86.0,86.0 0 0,1 42.46469731375804,11.215312516191453" fill="none" id="id61" stroke="none" /><text fill="#e1ed5e" style="font-size:6.75px; font-family:Arial;" text-anchor="middle"><textPath startOffset="22.20632615414155" xlink:href="#id61">January</textPath></text><path d="M 103.59715602781102 79.31037775812273 l 10.791468083433088 -62.06886672563182 a84.0,84.0 0 0,0 1.4224195155883965,0.2599380745970459 l -11.858282720124386 61.87391316968404" fill="red" stroke="none" /><path d="M 103.95276090670814 79.375362276772 l 8.562193053837062 -44.67564166404266 a66.48872506440601,66.48872506440601 0 0,0 1.1221827406919314,0.2250993008356871 l -9.329942203996119 44.521638407129764" fill="red" stroke="none" /><path d="M 104.307194497241 79.44645832069477 l 8.114827766983602 -38.72322246787741 a60.56435754545414,60.56435754545414 0 0,0 1.0185115963878242,0.22260718566688445 l -8.780182087524954 38.57780178411466" fill="red" stroke="none" /><path d="M 104.66035177308747 79.52364482259891 l 8.139429319474917 -35.762503304874905 a57.67706302688257,57.67706302688257 0 0,0 0.9661630751631859,0.2286595844141304 l -8.753816081600627 35.61709780831991" fill="red" stroke="none" /><path d="M 105.01212808612495 79.60689891045804 l 12.033663846323543 -48.96198163310954 a71.41909073959258,71.41909073959258 0 0,0 1.1913082221084248,0.30369099139949396 l -12.874680957116993 48.747587645541174" fill="red" stroke="none" /><path d="M 106.0581310904928 79.89281104454417 l 13.772231294154688 -45.71060824424725 a68.74027713449868,68.74027713449868 0 0,0 1.1300071024165668,0.35109870731354687 l -14.557023769281972 45.46676940205118" fill="red" stroke="none" /><path d="M 106.40334571778207 80.00007090966166 l 17.189252481450055 -53.68815708173259 a77.37276480450316,77.37276480450316 0 0,0 1.2649237737134875,0.41702548057084565 l -18.11085907740596 53.38431787690251" fill="red" stroke="none" /><path d="M 106.74666289553966 80.11325718540242 l 16.217431039091508 -47.80317101675609 a71.47918609451739,71.47918609451739 0 0,0 1.1617682166175711,0.40531811886095914 l -17.03788125977235 47.51693204472292" fill="red" stroke="none" /><path d="M 107.08798089147638 80.2323363322302 l 11.28086978864767 -31.46120782154701 a54.42253163330083,54.42253163330083 0 0,0 0.8790992669626997,0.3237796790462632 l -11.820751381382948 31.262364874694423" fill="red" stroke="none" /><path d="M 108.09893153111575 80.62456947434976 l 17.162269540228316 -41.05805313474067 a65.50064295026125,65.50064295026125 0 0,0 1.036520358454719,0.4437839237001842 l -17.86647365647335 40.756549683077694" fill="red" stroke="none" /><path d="M 108.43124777332544 80.76684994638697 l 11.506562961899986 -26.248481600521256 a49.65979374540353,49.65979374540353 0 0,0 0.7799375224040777,0.3499352316696211 l -11.956682602770844 26.046526038335102" fill="red" stroke="none" /><path d="M 108.76106565485865 80.91482961587045 l 12.925890991118699 -28.157856778002394 a51.982955899087145,51.982955899087145 0 0,0 0.8099978957730196,0.38030487295143883 l -13.408667098191316 27.93118692241095" fill="red" stroke="none" /><path d="M 109.08828744355905 81.06846463323043 l 13.03992926571016 -27.163080350074235 a51.13092579658503,51.13092579658503 0 0,0 0.7901645031118747,0.38773029003023673 l -13.505565035832467 26.934594899909168" fill="red" stroke="none" /><path d="M 109.41281617654863 81.2277094730956 l 14.571509976945238 -29.060444140448574 a53.509049765386045,53.509049765386045 0 0,0 0.8198083610049676,0.41993768403623855 l -15.069578825538962 28.805313931099835" fill="red" stroke="none" /><path d="M 109.73455568895987 81.39251694778311 l 10.894285066663446 -20.82429144391897 a44.50184165666604,44.50184165666604 0 0,0 0.6756967928971769,0.3609338259038404 l -11.251126906088935 20.633678891513377" fill="red" stroke="none" /><line stroke="#e1ed5e" stroke-width="0.3" x1="143.23703022742887" x2="145.7803849466894" y1="26.81831364943548" y2="22.513508569990506" /><path d="M 143.74570117128098 25.957352633546492 a86.0,86.0 0 0,1 28.547481713284135,27.462654790039103" fill="none" id="id62" stroke="none" /><text fill="#e1ed5e" style="font-size:6.75px; font-family:Arial;" text-anchor="middle"><textPath startOffset="19.985693538727396" xlink:href="#id62">February</textPath></text><line stroke="#e1ed5e" stroke-width="0.3" x1="172.23445277983987" x2="176.4835382374775" y1="55.19839476539836" y2="52.563006222186495" /><path d="M 173.08426987136738 54.67131705675599 a86.0,86.0 0 0,1 12.851231095245387,41.99856678651699" fill="none" id="id63" stroke="none" /><text fill="#e1ed5e" style="font-size:6.75px; font-family:Arial;" text-anchor="middle"><textPath startOffset="22.20632615414155" xlink:href="#id63">March</textPath></text><line stroke="#e1ed5e" stroke-width="0.3" x1="184.98032266829074" x2="189.97916517819016" y1="98.17113171792111" y2="98.06355123074" /><path d="M 185.9800911702706 98.14961562048488 a86.0,86.0 0 0,1 -9.607161424134198,41.387399972396054" fill="none" id="id64" stroke="none" /><text fill="#e1ed5e" style="font-size:6.75px; font-family:Arial;" text-anchor="middle"><textPath startOffset="21.466115282336823" xlink:href="#id64">April</textPath></text><line stroke="#e1ed5e" stroke-width="0.3" x1="174.80103733775053" x2="179.2010983576182" y1="140.37084112569926" y2="142.7455964860345" /><path d="M 175.68104954172406 140.8457921977663 a86.0,86.0 0 0,1 -30.038265399797805,32.042727171017184" fill="none" id="id65" stroke="none" /><text fill="#e1ed5e" style="font-size:6.75px; font-family:Arial;" text-anchor="middle"><textPath startOffset="22.206326154141568" xlink:href="#id65">May</textPath></text><path d="M 118.12598468904814 110.60418214915192 l 24.203324340468043 14.159587152051355 a49.04094893983495,49.04094893983495 0 0,0 -0.43253912464591343,0.7249604525105163 l -23.956004340123904 -14.574109698447975" fill="red" stroke="none" /><path d="M 117.94076556474637 110.91462005526583 l 20.633463975839092 12.552776463610297 a45.15185360562659,45.15185360562659 0 0,0 -0.4096678426860691,0.6605150034907901 l -20.41433149348506 -12.90608779846636" fill="red" stroke="none" /><line stroke="#e1ed5e" stroke-width="0.3" x1="143.8653032363475" x2="146.44561519142675" y1="172.8068346515853" y2="177.08958963109032" /><path d="M 144.38136562736335 173.6633856474863 a86.0,86.0 0 0,1 -40.68145358897372,12.25698825130547" fill="none" id="id66" stroke="none" /><text fill="#e1ed5e" style="font-size:6.75px; font-family:Arial;" text-anchor="middle"><textPath startOffset="21.466115282336833" xlink:href="#id66">June</textPath></text><line stroke="#e1ed5e" stroke-width="0.3" x1="102.19456741930631" x2="102.32365962044197" y1="184.97166512339345" y2="189.96999836594603" /><path d="M 102.22038585953345 185.97133177190398 a86.0,86.0 0 0,1 -42.740103519485714,-10.115201625700543" fill="none" id="id67" stroke="none" /><text fill="#e1ed5e" style="font-size:6.75px; font-family:Arial;" text-anchor="middle"><textPath startOffset="22.20632615414155" xlink:href="#id67">July</textPath></text><path d="M 94.11515582081647 120.15858648285463 l -6.971793641485973 23.881941608521863 a45.878766882068575,45.878766882068575 0 0,0 -0.7561804457002852,-0.22783096524671345 l 7.381849061626504 -23.758395274169423" fill="red" stroke="none" /><path d="M 93.08242187328487 119.8279376855182 l -11.779392119552208 33.76341381932087 a56.759225263432036,56.759225263432036 0 0,0 -0.9197168624265225,-0.3297777449075377 l 12.358828542608457 -33.55564853337337" fill="red" stroke="none" /><line stroke="#e1ed5e" stroke-width="0.3" x1="58.666819895761336" x2="56.23545636021788" y1="174.27360380694188" y2="178.64263932499728" /><path d="M 58.180547188652646 175.14741091055294 a86.0,86.0 0 0,1 -31.652253787137756,-30.449443065178592" fill="none" id="id68" stroke="none" /><text fill="#e1ed5e" style="font-size:6.75px; font-family:Arial;" text-anchor="middle"><textPath startOffset="22.20632615414155" xlink:href="#id68">August</textPath></text><line stroke="#e1ed5e" stroke-width="0.3" x1="26.63291911575756" x2="22.317208475507996" y1="142.92168965132927" y2="145.44649492493687" /><path d="M 25.769776987707644 143.4266507060508 a86.0,86.0 0 0,1 -11.730757126820373,-40.83630448921669" fill="none" id="id69" stroke="none" /><text fill="#e1ed5e" style="font-size:6.75px; font-family:Arial;" text-anchor="middle"><textPath startOffset="21.46611528233685" xlink:href="#id69">September</textPath></text><line stroke="#e1ed5e" stroke-width="0.3" x1="15.007084014347285" x2="10.007500721073583" y1="101.09737516637583" y2="101.16192664675087" /><path d="M 14.007167355692545 101.11028546245083 a86.0,86.0 0 0,1 10.666146001902534,-42.60595125391555" fill="none" id="id70" stroke="none" /><text fill="#e1ed5e" style="font-size:6.75px; font-family:Arial;" text-anchor="middle"><textPath startOffset="22.20632615414155" xlink:href="#id70">October</textPath></text><path d="M 81.6062741919709 89.86733742301443 l -30.83720756817207 -16.98747835897168 a56.20664413997818,56.20664413997818 0 0,0 0.47412273895203405,-0.8434114485587872 l 30.540227187927606 17.51577331746525" fill="red" stroke="none" /><line stroke="#e1ed5e" stroke-width="0.3" x1="26.266209847984243" x2="21.928928074336255" y1="57.711370442889674" y2="55.22380399835377" /><path d="M 25.398753493254645 57.213857153982495 a86.0,86.0 0 0,1 29.58750427330803,-30.492523968695096" fill="none" id="id71" stroke="none" /><text fill="#e1ed5e" style="font-size:6.75px; font-family:Arial;" text-anchor="middle"><textPath startOffset="21.46611528233685" xlink:href="#id71">November</textPath></text><path d="M 84.07557802195018 86.31012108654704 l -25.249144114858808 -21.70613954322451 a54.29678321404102,54.29678321404102 0 0,0 0.61538458030913,-0.7034909552743679 l 24.871767670971835 22.137546054701822" fill="red" stroke="none" /><path d="M 86.10567301691215 84.25364557470407 l -9.303730196269022 -10.543859614510266 a35.061734286192035,35.061734286192035 0 0,0 0.45597986017895653,-0.3954212414470334 l 9.120856537443293 10.70244584937698" fill="red" stroke="none" /><line stroke="#e1ed5e" stroke-width="0.3" x1="56.762969772571076" x2="54.21961505331055" y1="26.818313649435495" y2="22.513508569990535" /><path d="M 56.25429882871897 25.957352633546506 a86.0,86.0 0 0,1 42.265352541879196,-11.944610805530505" fill="none" id="id72" stroke="none" /><text fill="#e1ed5e" style="font-size:6.75px; font-family:Arial;" text-anchor="middle"><textPath startOffset="22.20632615414155" xlink:href="#id72">December</textPath></text><path d="M 90.58718382345135 81.22770947309562 l -17.140332085864312 -34.18353100797998 a59.240093830784964,59.240093830784964 0 0,0 0.9154815520518155,-0.44922282169909605 l 16.54937926680207 34.47350898981391" fill="red" stroke="none" /></svg>