<?xml version="1.0" encoding="utf-8" ?>
<svg baseProfile="full" height="200mm" version="1.1" viewBox="0,0,200,200" width="200mm" xmlns="http://www.w3.org/2000/svg" xmlns:ev="http://www.w3.org/2001/xml-events" xmlns:xlink="http://www.w3.org/1999/xlink"><defs /><rect fill="#1a1a1a" height="200" width="200" x="0" y="0" /><rect fill="#1a1a1a" height="200" width="180" x="10" y="0" /><text alignment-baseline="middle" fill="#e1ed5e" style="dominant-baseline: central; font-size:9.0px; font-family:Arial;" text-anchor="middle" x="100.0" y="100.0">2018</text><line stroke="#e1ed5e" stroke-width="0.3" x1="100.0" x2="100.0" y1="15.0" y2="10.0" /><path d="M 100.0 14.0 a86.0,86.0 0 0,1 42.46469731375804,11.215312516191453" fill="none" id="id25" stroke="none" /><text fill="#e1ed5e" style="font-size:6.75px; font-family:Arial;" text-anchor="middle"><textPath startOffset="22.20632615414155" xlink:href="#id25">January</textPath></text><path d="M 100.0 79.0 l 0.0 -11.227048243055208 a32.22704824305521,32.22704824305521 0 0,0 0.5547356592589757,0.004774784955540008 l -0.19325517998644734 11.225384834708226" fill="red" stroke="none" /><path d="M 100.36148047927253 79.00311137660856 l 0.44053085160079797 -25.58859400885136 a46.59238579697164,46.59238579697164 0 0,0 0.8017736776071663,0.020707448629833654 l -0.880931164402832 25.577219768079168" fill="red" stroke="none" /><path d="M 101.80526077348638 79.07773832637324 l 0.8000999537257772 -9.272843482096361 a30.307297469158755,30.307297469158755 0 0,0 0.5193730869024605,0.0493207327726199 l -0.9595981677184819 9.257697204808563" fill="red" stroke="none" /><path d="M 110.05341064243156 81.56283822128135 l 6.546902014708524 -12.006501662743744 a34.675452759147056,34.675452759147056 0 0,0 0.5215781060540567,0.29025765131844894 l -6.752604209834616 11.892028613865115" fill="red" stroke="none" /><line stroke="#e1ed5e" stroke-width="0.3" x1="143.23703022742887" x2="145.7803849466894" y1="26.81831364943548" y2="22.513508569990506" /><path d="M 143.74570117128098 25.957352633546492 a86.0,86.0 0 0,1 28.547481713284135,27.462654790039103" fill="none" id="id26" stroke="none" /><text fill="#e1ed5e" style="font-size:6.75px; font-family:Arial;" text-anchor="middle"><textPath startOffset="19.985693538727396" xlink:href="#id26">February</textPath></text><path d="M 110.99172775467656 82.1063720568725 l 7.601109029008257 -12.373979774230968 a35.522129111254586,35.522129111254586 0 0,0 0.5182523822213373,0.3245295942024365 l -7.812980563601858 12.241305838705587" fill="red" stroke="none" /><path d="M 111.2981086023043 82.29822771554956 l 7.570377410289914 -11.861197457153848 a35.0711982166346,35.0711982166346 0 0,0 0.506082357375992,0.3291700428339582 l -7.773426793450185 11.729128490160361" fill="red" stroke="none" /><path d="M 113.34407831869373 83.78471172551755 l 8.703069205476925 -10.575685534000524 a34.696296510713715,34.696296510713715 0 0,0 0.45789605111314197,0.3834747744217865 l -8.883822793549184 10.424309602184918" fill="red" stroke="none" /><path d="M 116.82858285166822 87.43820079747576 l 10.98397294385503 -8.19905417959708 a34.706646237183904,34.706646237183904 0 0,0 0.35324323310235556,0.48182337296888306 l -11.123478789471012 8.008768362956703" fill="red" stroke="none" /><line stroke="#e1ed5e" stroke-width="0.3" x1="172.23445277983987" x2="176.4835382374775" y1="55.19839476539836" y2="52.563006222186495" /><path d="M 173.08426987136738 54.67131705675599 a86.0,86.0 0 0,1 12.851231095245387,41.99856678651699" fill="none" id="id27" stroke="none" /><text fill="#e1ed5e" style="font-size:6.75px; font-family:Arial;" text-anchor="middle"><textPath startOffset="22.20632615414155" xlink:href="#id27">March</textPath></text><path d="M 118.03404312379186 89.2402003453031 l 11.670814078214265 -6.963253909664482 a34.590246732811806,34.590246732811806 0 0,0 0.30067213803615067,0.5139461482093187 l -11.788945890720742 6.761328349101269" fill="red" stroke="none" /><path d="M 118.21658344932153 89.55222093294921 l 10.109119423092102 -5.797895449974289 a32.65374991833833,32.65374991833833 0 0,0 0.2754458229134036,0.48998738389208496 l -10.20742288729794 5.623024556147411" fill="red" stroke="none" /><path d="M 120.28053869075195 94.5502522615342 l 4.577871625000103 -1.2301569458166124 a25.740273697406295,25.740273697406295 0 0,0 0.11130053668508848,0.42888637019397 l -4.598368493555495 1.1511741500737918" fill="red" stroke="none" /><path d="M 120.78858239683441 97.02765380044208 l 26.186605461398262 -3.744154158119124 a47.45292036714839,47.45292036714839 0 0,0 0.10865363179249463,0.8095957610959705 l -26.247175092248593 3.2928400549584893" fill="red" stroke="none" /><path d="M 120.83666639777658 97.38593545837742 l 11.950815773536915 -1.4992899133039914 a33.04449533592644,33.04449533592644 0 0,0 0.06594681593824904,0.5649920459171233 l -11.974852942478753 1.2933541290620154" fill="red" stroke="none" /><line stroke="#e1ed5e" stroke-width="0.3" x1="184.98032266829074" x2="189.97916517819016" y1="98.17113171792111" y2="98.06355123074" /><path d="M 185.9800911702706 98.14961562048488 a86.0,86.0 0 0,1 -9.607161424134198,41.387399972396054" fill="none" id="id28" stroke="none" /><text fill="#e1ed5e" style="font-size:6.75px; font-family:Arial;" text-anchor="middle"><textPath startOffset="21.466115282336823" xlink:href="#id28">April</textPath></text><path d="M 120.99980553446 99.90962569577887 l 12.870225403522618 -0.055388020813040326 a33.87034458630881,33.87034458630881 0 0,0 -0.002509151756113693,0.5830385018059893 l -12.869271954477 -0.16615995919663365" fill="red" stroke="none" /><path d="M 119.79798401119884 107.00284435728193 l 13.197992186857839 4.668328101533393 a34.999295876147734,34.999295876147734 0 0,0 -0.20578875821924103,0.5662422798645439 l -13.115679167633372 -4.894818178404068" fill="red" stroke="none" /><path d="M 119.67450827220406 107.3425965602758 l 25.932282728549623 9.678020275188146 a48.67936711632667,48.67936711632667 0 0,0 -0.2997390778051799,0.782524148569024 l -25.761849371150937 -10.122967990590313" fill="red" stroke="none" /><path d="M 119.54520255179757 107.68017299344265 l 7.57206306474064 2.975397880904394 a29.13567032309568,29.13567032309568 0 0,0 -0.18743585202422383,0.465200413221779 l -7.519724598459025 -3.1052976619689865" fill="red" stroke="none" /><line stroke="#e1ed5e" stroke-width="0.3" x1="174.80103733775053" x2="179.2010983576182" y1="140.37084112569926" y2="142.7455964860345" /><path d="M 175.68104954172406 140.8457921977663 a86.0,86.0 0 0,1 -30.038265399797805,32.042727171017184" fill="none" id="id29" stroke="none" /><text fill="#e1ed5e" style="font-size:6.75px; font-family:Arial;" text-anchor="middle"><textPath startOffset="22.206326154141568" xlink:href="#id29">May</textPath></text><path d="M 118.48025628344425 109.97397251340804 l 12.500615723324234 6.7467028439864825 a35.20504814237799,35.20504814237799 0 0,0 -0.2924090905917158,0.5308074353857838 l -12.382630223281009 -6.960880797770072" fill="red" stroke="none" /><path d="M 115.56566222782051 114.09645910891815 l 6.900978711902408 6.249612949327626 a30.310272240838813,30.310272240838813 0 0,0 -0.35355286000100117,0.3837118019931873 l -6.792379443905685 -6.367476006122149" fill="red" stroke="none" /><path d="M 115.32070863581623 114.36230785411682 l 11.72197155627053 10.988693026560442 a37.067233476799714,37.067233476799714 0 0,0 -0.44038247195085034,0.46173926121454556 l -11.531082532940715 -11.188839404357495" fill="red" stroke="none" /><path d="M 113.20401910651253 116.32954008644616 l 8.929673103649423 11.043414412584635 a35.201973934144576,35.201973934144576 0 0,0 -0.4744597601723206,0.3769395284697461 l -8.738255850759751 -11.195487855059508" fill="red" stroke="none" /><line stroke="#e1ed5e" stroke-width="0.3" x1="143.8653032363475" x2="146.44561519142675" y1="172.8068346515853" y2="177.08958963109032" /><path d="M 144.38136562736335 173.6633856474863 a86.0,86.0 0 0,1 -40.68145358897372,12.25698825130547" fill="none" id="id30" stroke="none" /><text fill="#e1ed5e" style="font-size:6.75px; font-family:Arial;" text-anchor="middle"><textPath startOffset="21.466115282336833" xlink:href="#id30">June</textPath></text><path d="M 110.21172684928248 118.3499491758327 l 3.874050109542044 6.961469266064488 a28.966826130499093,28.966826130499093 0 0,0 -0.4377814203041692,0.23871333574915343 l -3.7536458773692263 -7.027123253573412" fill="red" stroke="none" /><path d="M 108.59647513512805 119.15986991738527 l 5.735009910362083 12.782220867299253 a35.0098361508039,35.0098361508039 0 0,0 -0.5519539491976542,0.24196039089689894 l -5.514135286506676 -12.879045811490608" fill="red" stroke="none" /><line stroke="#e1ed5e" stroke-width="0.3" x1="102.19456741930631" x2="102.32365962044197" y1="184.97166512339345" y2="189.96999836594603" /><path d="M 102.22038585953345 185.97133177190398 a86.0,86.0 0 0,1 -42.740103519485714,-10.115201625700543" fill="none" id="id31" stroke="none" /><text fill="#e1ed5e" style="font-size:6.75px; font-family:Arial;" text-anchor="middle"><textPath startOffset="22.20632615414155" xlink:href="#id31">July</textPath></text><path d="M 99.45781275523022 120.99299961872073 l -0.3514989930097559 13.609723019890952 a34.61426135419166,34.61426135419166 0 0,0 -0.5954965794802075,-0.020510106255337085 l 0.5857159241646065 -13.601656115209522" fill="red" stroke="none" /><path d="M 98.73552117531835 120.96189622390904 l -0.5810597000352272 9.632516491607262 a30.650026131368293,30.650026131368293 0 0,0 -0.5263590860033482,-0.0363008043098214 l 0.7467815468175054 -9.621087342781156" fill="red" stroke="none" /><path d="M 98.37488393609728 120.93702456842531 l -1.2175116301514814 15.685692535466229 a36.73287274742712,36.73287274742712 0 0,0 -0.6299787069363212,-0.0543572136466193 l 1.4873346548293445 -15.662411069540946" fill="red" stroke="none" /><path d="M 98.01472825383883 120.90594882070398 l -0.8752514920068039 9.216855542582984 a30.258320110425153,30.258320110425153 0 0,0 -0.5180907425324919,-0.05370222380872862 l 1.0337748311448889 -9.200423950318495" fill="red" stroke="none" /><path d="M 97.65516085044442 120.86867818915974 l -1.5554729901600508 13.843450741485785 a34.93056440547406,34.93056440547406 0 0,0 -0.5969343648791376,-0.07228043845547778 l 1.793534778090578 -13.81462477430496" fill="red" stroke="none" /><path d="M 97.2962882734958 120.8252237178851 l -1.124554278881491 8.661831145324088 a29.734525809467684,29.734525809467684 0 0,0 -0.5070039784279822,-0.07026613157934226 l 1.2734868484963042 -8.641190448252141" fill="red" stroke="none" /><line stroke="#e1ed5e" stroke-width="0.3" x1="58.666819895761336" x2="56.23545636021788" y1="174.27360380694188" y2="178.64263932499728" /><path d="M 58.180547188652646 175.14741091055294 a86.0,86.0 0 0,1 -31.652253787137756,-30.449443065178592" fill="none" id="id32" stroke="none" /><text fill="#e1ed5e" style="font-size:6.75px; font-family:Arial;" text-anchor="middle"><textPath startOffset="22.20632615414155" xlink:href="#id32">August</textPath></text><path d="M 84.43433777217949 114.09645910891817 l -10.140902018798256 9.183728166736097 a34.68132876570724,34.68132876570724 0 0,0 -0.39692145006067875,-0.4459454568785785 l 10.297482318507273 -9.007808540116654" fill="red" stroke="none" /><line stroke="#e1ed5e" stroke-width="0.3" x1="26.63291911575756" x2="22.317208475507996" y1="142.92168965132927" y2="145.44649492493687" /><path d="M 25.769776987707644 143.4266507060508 a86.0,86.0 0 0,1 -11.730757126820373,-40.83630448921669" fill="none" id="id33" stroke="none" /><text fill="#e1ed5e" style="font-size:6.75px; font-family:Arial;" text-anchor="middle"><textPath startOffset="21.46611528233685" xlink:href="#id33">September</textPath></text><path d="M 81.87401531095188 110.60418214915194 l -54.3779540671444 31.812546447455823 a84.0,84.0 0 0,0 -0.7193920153904911,-1.2543206165667722 l 54.91749807868727 -30.871805985030743" fill="red" stroke="none" /><path d="M 81.02952815118164 109.00673069616217 l -16.083531951933967 7.636080013645612 a38.80420506576126,38.80420506576126 0 0,0 -0.2812849992553069,-0.605862864107638 l 16.2125915680291 -7.358097082259148" fill="red" stroke="none" /><path d="M 80.73074385275274 108.34839909993369 l -22.035611363792995 9.546921618054165 a45.014826265400984,45.014826265400984 0 0,0 -0.30191876720383404,-0.7136467803078131 l 22.196681112189136 -9.166200312080194" fill="red" stroke="none" /><path d="M 80.58989483394504 108.01547362559985 l -9.614461865116722 3.9703270458807993 a31.40198893515256,31.40198893515256 0 0,0 -0.20201555296464505,-0.5013860352833278 l 9.681380032338755 -3.804241642754666" fill="red" stroke="none" /><path d="M 80.45479744820244 107.68017299344265 l -9.117254466955476 3.5825718022561976 a30.795874117889674,30.795874117889674 0 0,0 -0.18962298516006343,-0.49504577814153655 l 9.17757173170905 -3.425102457281503" fill="red" stroke="none" /><path d="M 80.32549172779594 107.34259656027581 l -8.293043737161717 3.0949934593653223 a29.851754568445248,29.851754568445248 0 0,0 -0.17552225979187835,-0.48296187513628475 l 8.345090257958821 -2.9517837872229205" fill="red" stroke="none" /><path d="M 80.0844068197444 106.66101706037122 l -14.22626531509005 4.758150817377062 a36.00088744095629,36.00088744095629 0 0,0 -0.19150371892602894,-0.5893878430464788 l 14.306061285032328 -4.512564074352779" fill="red" stroke="none" /><path d="M 79.67330655649465 105.27499134158121 l -15.745359876068527 4.086086959848328 a37.266913175841054,37.266913175841054 0 0,0 -0.15579111085653582,-0.6223080458267614 l 15.813362301220122 -3.8144510746241744" fill="red" stroke="none" /><line stroke="#e1ed5e" stroke-width="0.3" x1="15.007084014347285" x2="10.007500721073583" y1="101.09737516637583" y2="101.16192664675087" /><path d="M 14.007167355692545 101.11028546245083 a86.0,86.0 0 0,1 10.666146001902534,-42.60595125391555" fill="none" id="id34" stroke="none" /><text fill="#e1ed5e" style="font-size:6.75px; font-family:Arial;" text-anchor="middle"><textPath startOffset="22.20632615414155" xlink:href="#id34">October</textPath></text><path d="M 79.00175016825051 100.2711162175752 l -27.495596757993717 0.3550058815725228 a48.49788846901059,48.49788846901059 0 0,0 -0.0035927760259343014,-0.8348346194610758 l 27.49763383130915 0.11833821609222844" fill="red" stroke="none" /><path d="M 79.00019446554 99.90962569577889 l -28.18277031411892 -0.12128675448839747 a49.183031296423685,49.183031296423685 0 0,0 0.010930326523313457,-0.8465658348730581 l 28.17650698047789 0.6063888474219276" fill="red" stroke="none" /><path d="M 80.95270993114464 91.15688171328213 l -40.816229596757665 -18.949821472617163 a66.00067035433248,66.00067035433248 0 0,0 0.48727919711385115,-1.0263342608103028 l 40.48399220580206 19.649598149067998" fill="red" stroke="none" /><line stroke="#e1ed5e" stroke-width="0.3" x1="26.266209847984243" x2="21.928928074336255" y1="57.711370442889674" y2="55.22380399835377" /><path d="M 25.398753493254645 57.213857153982495 a86.0,86.0 0 0,1 29.58750427330803,-30.492523968695096" fill="none" id="id35" stroke="none" /><text fill="#e1ed5e" style="font-size:6.75px; font-family:Arial;" text-anchor="middle"><textPath startOffset="21.46611528233685" xlink:href="#id35">November</textPath></text><path d="M 82.95767976084542 87.72973835380427 l -6.646611228930967 -4.785478602388431 a29.190131029627594,29.190131029627594 0 0,0 0.29709630222177746,-0.4052390223469681 l 6.563252314195556 4.8991800684069" fill="red" stroke="none" /><line stroke="#e1ed5e" stroke-width="0.3" x1="56.762969772571076" x2="54.21961505331055" y1="26.818313649435495" y2="22.513508569990535" /><path d="M 56.25429882871897 25.957352633546506 a86.0,86.0 0 0,1 42.265352541879196,-11.944610805530505" fill="none" id="id36" stroke="none" /><text fill="#e1ed5e" style="font-size:6.75px; font-family:Arial;" text-anchor="middle"><textPath startOffset="22.20632615414155" xlink:href="#id36">December</textPath></text><path d="M 89.63071344664047 81.73862282372117 l -11.989277751392565 -21.114347835089347 a45.28082505808192,45.28082505808192 0 0,0 0.6811010410852844,-0.3790319919515125 l 11.624052621235236 21.317595224601046" fill="red" stroke="none" /><path d="M 91.90106846888425 80.62456947434976 l -5.774798195964601 -13.815304008397751 a35.973674200027425,35.973674200027425 0 0,0 0.573379477377214,-0.23389588552345073 l 5.536134848999006 13.912660780104778" fill="red" stroke="none" /><path d="M 93.94186890950719 79.89281104454417 l -8.99001035534328 -29.838218128041095 a52.16311196343747,52.16311196343747 0 0,0 0.8619576250143445,-0.25162906717605854 l 8.475062512605513 29.98854552413585" fill="red" stroke="none" /><path d="M 98.55514903715128 79.0497635885617 l -1.5638595017639145 -22.67585177894825 a43.72971426221825,43.72971426221825 0 0,0 0.7513971666289311,-0.04532632906770844 l 1.1733002862953605 22.699411377396263" fill="red" stroke="none" /></svg>