<?xml version="1.0" encoding="utf-8" ?>
<svg baseProfile="full" height="200mm" version="1.1" viewBox="0,0,200,200" width="200mm" xmlns="http://www.w3.org/2000/svg" xmlns:ev="http://www.w3.org/2001/xml-events" xmlns:xlink="http://www.w3.org/1999/xlink"><defs /><rect fill="#1a1a1a" height="200" width="200" x="0" y="0" /><rect fill="#1a1a1a" height="200" width="180" x="10" y="0" /><text alignment-baseline="middle" fill="#e1ed5e" style="dominant-baseline: central; font-size:9.0px; font-family:Arial;" text-anchor="middle" x="100.0" y="100.0">2022</text><line stroke="#e1ed5e" stroke-width="0.3" x1="100.0" x2="100.0" y1="15.0" y2="10.0" /><path d="M 100.0 14.0 a86.0,86.0 0 0,1 42.46469731375804,11.215312516191453" fill="none" id="id73" stroke="none" /><text fill="#e1ed5e" style="font-size:6.75px; font-family:Arial;" text-anchor="middle"><textPath startOffset="22.20632615414155" xlink:href="#id73">January</textPath></text><line stroke="#e1ed5e" stroke-width="0.3" x1="143.23703022742887" x2="145.7803849466894" y1="26.81831364943548" y2="22.513508569990506" /><path d="M 143.74570117128098 25.957352633546492 a86.0,86.0 0 0,1 28.547481713284135,27.462654790039103" fill="none" id="id74" stroke="none" /><text fill="#e1ed5e" style="font-size:6.75px; font-family:Arial;" text-anchor="middle"><textPath startOffset="19.985693538727396" xlink:href="#id74">February</textPath></text><line stroke="#e1ed5e" stroke-width="0.3" x1="172.23445277983987" x2="176.4835382374775" y1="55.19839476539836" y2="52.563006222186495" /><path d="M 173.08426987136738 54.67131705675599 a86.0,86.0 0 0,1 12.851231095245387,41.99856678651699" fill="none" id="id75" stroke="none" /><text fill="#e1ed5e" style="font-size:6.75px; font-family:Arial;" text-anchor="middle"><textPath startOffset="22.20632615414155" xlink:href="#id75">March</textPath></text><line stroke="#e1ed5e" stroke-width="0.3" x1="184.98032266829074" x2="189.97916517819016" y1="98.17113171792111" y2="98.06355123074" /><path d="M 185.9800911702706 98.14961562048488 a86.0,86.0 0 0,1 -9.607161424134198,41.387399972396054" fill="none" id="id76" stroke="none" /><text fill="#e1ed5e" style="font-size:6.75px; font-family:Arial;" text-anchor="middle"><textPath startOffset="21.466115282336823" xlink:href="#id76">April</textPath></text><path d="M 119.67450827220406 107.3425965602758 l 21.83778906887449 8.149940658373728 a44.309023234611686,44.309023234611686 0 0,0 -0.2728290557075958,0.7122705724117889 l -21.69426573357339 -8.524634797618662" fill="red" stroke="none" /><line stroke="#e1ed5e" stroke-width="0.3" x1="174.80103733775053" x2="179.2010983576182" y1="140.37084112569926" y2="142.7455964860345" /><path d="M 175.68104954172406 140.8457921977663 a86.0,86.0 0 0,1 -30.038265399797805,32.042727171017184" fill="none" id="id77" stroke="none" /><text fill="#e1ed5e" style="font-size:6.75px; font-family:Arial;" text-anchor="middle"><textPath startOffset="22.206326154141568" xlink:href="#id77">May</textPath></text><path d="M 116.0416608686014 113.55231037782055 l 14.88625445992716 12.576200335903089 a40.48746742741268,40.48746742741268 0 0,0 -0.4543416651323291,0.5285020008955006 l -14.667570285224052 -12.830579435960118" fill="red" stroke="none" /><path d="M 115.56566222782051 114.09645910891815 l 6.333595880632164 5.735783934985518 a29.544802755359463,29.544802755359463 0 0,0 -0.3446240742849139,0.3740213685549704 l -6.233925398351529 -5.843956558341823" fill="red" stroke="none" /><path d="M 114.0293411484842 115.62618273729858 l 12.233281065991813 13.625692282390364 a39.311544331758206,39.311544331758206 0 0,0 -0.5074140338178451,0.4477338888261579 l -11.99692467926738 -13.834249312988812" fill="red" stroke="none" /><line stroke="#e1ed5e" stroke-width="0.3" x1="143.8653032363475" x2="146.44561519142675" y1="172.8068346515853" y2="177.08958963109032" /><path d="M 144.38136562736335 173.6633856474863 a86.0,86.0 0 0,1 -40.68145358897372,12.25698825130547" fill="none" id="id78" stroke="none" /><text fill="#e1ed5e" style="font-size:6.75px; font-family:Arial;" text-anchor="middle"><textPath startOffset="21.466115282336833" xlink:href="#id78">June</textPath></text><path d="M 110.8373102113329 117.98757091392108 l 32.51193063399873 53.96271274176323 a84.0,84.0 0 0,0 -1.2449285158864716,0.735525710825002 l -31.578234247083873 -54.514357024881974" fill="red" stroke="none" /><path d="M 110.5260780823613 118.17145234162733 l 9.262120844125565 15.989448889178771 a39.478348365339514,39.478348365339514 0 0,0 -0.5909555946932828,0.33556000966047184 l -8.985516482511082 -16.14651206463387" fill="red" stroke="none" /><path d="M 109.89434966115114 118.52300852407294 l 8.445571755974491 15.810781201802065 a38.92507976262788,38.92507976262788 0 0,0 -0.5937170079929289,0.31060467778318096 l -8.172163845455067 -15.953815298529962" fill="red" stroke="none" /><path d="M 108.59647513512805 119.15986991738527 l 4.644949578903736 10.35268855032679 a32.34696949897308,32.34696949897308 0 0,0 -0.5099720399326774,0.22355675560971963 l -4.4660568643133045 -10.431109859230965" fill="red" stroke="none" /><path d="M 107.2578585660854 119.70592522655815 l 3.1987958118853324 8.685100503141712 a30.255445175452532,30.255445175452532 0 0,0 -0.49025410369742656,0.17578767918036373 l -3.048822147558171 -8.738875723362035" fill="red" stroke="none" /><line stroke="#e1ed5e" stroke-width="0.3" x1="102.19456741930631" x2="102.32365962044197" y1="184.97166512339345" y2="189.96999836594603" /><path d="M 102.22038585953345 185.97133177190398 a86.0,86.0 0 0,1 -42.740103519485714,-10.115201625700543" fill="none" id="id79" stroke="none" /><text fill="#e1ed5e" style="font-size:6.75px; font-family:Arial;" text-anchor="middle"><textPath startOffset="22.20632615414155" xlink:href="#id79">July</textPath></text><path d="M 96.93821686468263 120.77559828337769 l -1.9664703097020284 13.343400033563764 a34.48752497438463,34.48752497438463 0 0,0 -0.5865574797026563,-0.09160821516572082 l 2.195863653013202 -13.307573511050936" fill="red" stroke="none" /><path d="M 95.86986931433489 120.58985236759428 l -4.590791039613093 22.88637259934221 a44.34226666639968,44.34226666639968 0 0,0 -0.7470796460070137,-0.15655780354011373 l 4.984062147049492 -22.803958815075553" fill="red" stroke="none" /><line stroke="#e1ed5e" stroke-width="0.3" x1="58.666819895761336" x2="56.23545636021788" y1="174.27360380694188" y2="178.64263932499728" /><path d="M 58.180547188652646 175.14741091055294 a86.0,86.0 0 0,1 -31.652253787137756,-30.449443065178592" fill="none" id="id80" stroke="none" /><text fill="#e1ed5e" style="font-size:6.75px; font-family:Arial;" text-anchor="middle"><textPath startOffset="22.20632615414155" xlink:href="#id80">August</textPath></text><path d="M 86.79598089348748 116.32954008644616 l -14.8560301330602 18.372598344969575 a44.62739937572418,44.62739937572418 0 0,0 -0.5931828691014631,-0.48814911758637386 l 15.17008313070635 -18.11415410852602" fill="red" stroke="none" /><path d="M 85.70375840098266 115.38237550388516 l -17.286181673184004 18.599471454341625 a46.39197540994382,46.39197540994382 0 0,0 -0.5802623577149824,-0.5486742773697402 l 17.603779865289805 -18.299162540225954" fill="red" stroke="none" /><line stroke="#e1ed5e" stroke-width="0.3" x1="26.63291911575756" x2="22.317208475507996" y1="142.92168965132927" y2="145.44649492493687" /><path d="M 25.769776987707644 143.4266507060508 a86.0,86.0 0 0,1 -11.730757126820373,-40.83630448921669" fill="none" id="id81" stroke="none" /><text fill="#e1ed5e" style="font-size:6.75px; font-family:Arial;" text-anchor="middle"><textPath startOffset="21.46611528233685" xlink:href="#id81">September</textPath></text><path d="M 81.69416730710424 110.29060199501025 l -18.06501872331989 10.155228709494235 a41.723744150515714,41.723744150515714 0 0,0 -0.34655263170758255,-0.6290936895656988 l 18.23714776447899 -9.842764501530715" fill="red" stroke="none" /><path d="M 79.58551787078972 104.9243191809786 l -6.312845613604965 1.5227653851258443 a27.493907464643218,27.493907464643218 0 0,0 -0.10701602078655341,-0.46102221667899396 l 6.338122200322074 -1.413874511098276" fill="red" stroke="none" /><path d="M 79.35854240842038 103.8639653848113 l -13.991704010498864 2.6191687157377577 a35.23474010577325,35.23474010577325 0 0,0 -0.10646521966501823,-0.5971134917349106 l 14.034715672503072 -2.3779364732696333" fill="red" stroke="none" /><line stroke="#e1ed5e" stroke-width="0.3" x1="15.007084014347285" x2="10.007500721073583" y1="101.09737516637583" y2="101.16192664675087" /><path d="M 14.007167355692545 101.11028546245083 a86.0,86.0 0 0,1 10.666146001902534,-42.60595125391555" fill="none" id="id82" stroke="none" /><text fill="#e1ed5e" style="font-size:6.75px; font-family:Arial;" text-anchor="middle"><textPath startOffset="22.20632615414155" xlink:href="#id82">October</textPath></text><path d="M 79.62865764111835 94.90015583598534 l -19.40318296420965 -4.857471228948776 a41.001963300702776,41.001963300702776 0 0,0 0.17729184134394535,-0.6831777865919146 l 19.316694790995395 5.190745441089555" fill="red" stroke="none" /><line stroke="#e1ed5e" stroke-width="0.3" x1="26.266209847984243" x2="21.928928074336255" y1="57.711370442889674" y2="55.22380399835377" /><path d="M 25.398753493254645 57.213857153982495 a86.0,86.0 0 0,1 29.58750427330803,-30.492523968695096" fill="none" id="id83" stroke="none" /><text fill="#e1ed5e" style="font-size:6.75px; font-family:Arial;" text-anchor="middle"><textPath startOffset="21.46611528233685" xlink:href="#id83">November</textPath></text><path d="M 84.07557802195018 86.31012108654704 l -15.247690561232318 -13.108107646280379 a41.10757453094647,41.10757453094647 0 0,0 0.4659017717593082,-0.5326062643856492 l 15.019796925895166 13.36862946686897" fill="red" stroke="none" /><line stroke="#e1ed5e" stroke-width="0.3" x1="56.762969772571076" x2="54.21961505331055" y1="26.818313649435495" y2="22.513508569990535" /><path d="M 56.25429882871897 25.957352633546506 a86.0,86.0 0 0,1 42.265352541879196,-11.944610805530505" fill="none" id="id84" stroke="none" /><text fill="#e1ed5e" style="font-size:6.75px; font-family:Arial;" text-anchor="middle"><textPath startOffset="22.20632615414155" xlink:href="#id84">December</textPath></text></svg>