<?xml version="1.0" encoding="utf-8" ?>
<svg baseProfile="full" height="200mm" version="1.1" viewBox="0,0,200,200" width="200mm" xmlns="http://www.w3.org/2000/svg" xmlns:ev="http://www.w3.org/2001/xml-events" xmlns:xlink="http://www.w3.org/1999/xlink"><defs /><rect fill="#1a1a1a" height="200" width="200" x="0" y="0" /><rect fill="#1a1a1a" height="200" width="180" x="10" y="0" /><text alignment-baseline="middle" fill="#e1ed5e" style="dominant-baseline: central; font-size:9.0px; font-family:Arial;" text-anchor="middle" x="100.0" y="100.0">2019</text><line stroke="#e1ed5e" stroke-width="0.3" x1="100.0" x2="100.0" y1="15.0" y2="10.0" /><path d="M 100.0 14.0 a86.0,86.0 0 0,1 42.46469731375804,11.215312516191453" fill="none" id="id37" stroke="none" /><text fill="#e1ed5e" style="font-size:6.75px; font-family:Arial;" text-anchor="middle"><textPath startOffset="22.20632615414155" xlink:href="#id37">January</textPath></text><path d="M 100.36148047927253 79.00311137660856 l 0.16727566440958117 -9.716343471935591 a30.717783266389976,30.717783266389976 0 0,0 0.5285994618252443,0.013652164578626877 l -0.3345017614296933 9.712024515214605" fill="red" stroke="none" /><path d="M 103.59715602781102 79.31037775812273 l 1.4869925349595525 -8.552677055692296 a29.68098102854688,29.68098102854688 0 0,0 0.5026048411525481,0.09184782215133241 l -1.6339924972150015 8.525813752190224" fill="red" stroke="none" /><path d="M 104.307194497241 79.44645832069477 l 1.2900729584871973 -6.156111208489864 a27.28983254542714,27.28983254542714 0 0,0 0.4589334723833068,0.10030508151099933 l -1.3958491550240322 6.132992628882994" fill="red" stroke="none" /><path d="M 106.40334571778207 80.00007090966166 l 5.1301967291077535 -16.02343139410871 a37.82466261537082,37.82466261537082 0 0,0 0.6183741151781833,0.20386822345641528 l -5.405253666528354 15.932749446393057" fill="red" stroke="none" /><path d="M 108.09893153111575 80.62456947434976 l 7.55337092997507 -18.07026187663501 a40.585397026763616,40.585397026763616 0 0,0 0.6422469823105809,0.27497664032311775 l -7.863301670075966 17.9375657083491" fill="red" stroke="none" /><path d="M 108.43124777332544 80.76684994638697 l 6.983241036515943 -15.929993558104767 a38.393399614087514,38.393399614087514 0 0,0 0.6029918916941277,0.27054488501140034 l -7.2564150466768504 15.807428342576836" fill="red" stroke="none" /><path d="M 108.76106565485865 80.91482961587045 l 8.56058474135922 -18.648441275635697 a41.519453528903384,41.519453528903384 0 0,0 0.6469557071233802,0.3037543792233649 l -8.880318659782198 18.49832191377233" fill="red" stroke="none" /><path d="M 109.08828744355905 81.06846463323043 l 5.67755144413866 -11.826734863842804 a34.11892708800822,34.11892708800822 0 0,0 0.5272653418492745,0.2587268133572006 l -5.880288052998367 11.727252890350771" fill="red" stroke="none" /><path d="M 109.41281617654863 81.2277094730956 l 8.109398546982106 -16.172841651968078 a39.09207428387992,39.09207428387992 0 0,0 0.5989269009161748,0.3067936210963042 l -8.386585935487037 16.030855505559273" fill="red" stroke="none" /><path d="M 110.36928655335952 81.73862282372117 l 4.47960243959767 -7.889039359488862 a30.072143078259614,30.072143078259614 0 0,0 0.4479364103166556,0.2594736811501067 l -4.614735582379654 7.810761520948706" fill="red" stroke="none" /><line stroke="#e1ed5e" stroke-width="0.3" x1="143.23703022742887" x2="145.7803849466894" y1="26.81831364943548" y2="22.513508569990506" /><path d="M 143.74570117128098 25.957352633546492 a86.0,86.0 0 0,1 28.547481713284135,27.462654790039103" fill="none" id="id38" stroke="none" /><text fill="#e1ed5e" style="font-size:6.75px; font-family:Arial;" text-anchor="middle"><textPath startOffset="19.985693538727396" xlink:href="#id38">February</textPath></text><path d="M 110.68208982089419 81.91981866633111 l 7.4016753049330255 -12.52785119110014 a35.55100865184282,35.55100865184282 0 0,0 0.5241876601350239,0.3158172000555908 l -7.616225031285687 12.398587381585935" fill="red" stroke="none" /><path d="M 110.99172775467656 82.1063720568725 l 12.675363082439711 -20.63444765948936 a45.21663187736646,45.21663187736646 0 0,0 0.6596909524504228,0.4130984139042905 l -13.028673187262397 20.413204904262123" fill="red" stroke="none" /><path d="M 112.19680574252982 82.90503203632743 l 2.97084920606622 -4.163923987533326 a26.115096086989933,26.115096086989933 0 0,0 0.36368962688147866,0.26423598092379436 l -3.0420841493014876 4.112168771792857" fill="red" stroke="none" /><path d="M 112.77801427241765 83.33499621200491 l 17.85552358798118 -23.28705868427882 a50.34462173492781,50.34462173492781 0 0,0 0.683170391298447,0.5332253266776251 l -18.253726534439053 22.97625496837797" fill="red" stroke="none" /><path d="M 115.68641384162765 86.03803664274999 l 12.026965522318042 -10.704808225567637 a37.10095707780154,37.10095707780154 0 0,0 0.4204918882650375,0.48069491765961614 l -12.209449274160928 10.496197751705074" fill="red" stroke="none" /><path d="M 115.9244219780498 86.31012108654704 l 15.307996057382502 -13.159950968521509 a41.18710114867235,41.18710114867235 0 0,0 0.45754826472465815,0.5415928272822197 l -15.532254935594276 12.894499191610182" fill="red" stroke="none" /><path d="M 116.60985879189232 87.15038557335679 l 13.277115541162555 -10.27135856719071 a37.786381501359436,37.786381501359436 0 0,0 0.3935614650579901,0.5178807552599302 l -13.451952946444658 10.041293036049746" fill="red" stroke="none" /><line stroke="#e1ed5e" stroke-width="0.3" x1="172.23445277983987" x2="176.4835382374775" y1="55.19839476539836" y2="52.563006222186495" /><path d="M 173.08426987136738 54.67131705675599 a86.0,86.0 0 0,1 12.851231095245387,41.99856678651699" fill="none" id="id39" stroke="none" /><text fill="#e1ed5e" style="font-size:6.75px; font-family:Arial;" text-anchor="middle"><textPath startOffset="22.20632615414155" xlink:href="#id39">March</textPath></text><path d="M 118.21658344932153 89.55222093294921 l 21.761022838368273 -12.480625662919573 a46.086014667736926,46.086014667736926 0 0,0 0.3887516829368785,0.6915458658662317 l -21.972632162597584 12.104196287118548" fill="red" stroke="none" /><path d="M 119.196687751892 91.48605970444005 l 9.844361330355051 -4.366081570832516 a31.769128018820894,31.769128018820894 0 0,0 0.21740565888103586,0.5018022352181246 l -9.91805769907877 4.195980191027789" fill="red" stroke="none" /><path d="M 119.34039704204932 91.81776055985345 l 9.745785855167519 -4.123098053571523 a31.58207349691678,31.58207349691678 0 0,0 0.2075067250352719,0.5024939939586986 l -9.815314267088988 3.954729489159521" fill="red" stroke="none" /><path d="M 119.47837535516314 92.15188598940014 l 15.75701177271847 -6.348723782339441 a37.987928469063874,37.987928469063874 0 0,0 0.23915472239251548,0.6086226826363953 l -15.863960044992686 6.076552094807261" fill="red" stroke="none" /><path d="M 120.08093135843002 93.85539295169968 l 20.925540345092557 -6.403050754912845 a42.88326524319637,42.88326524319637 0 0,0 0.20991175140929946,0.7077180730307517 l -21.032657993613558 6.041903295135563" fill="red" stroke="none" /><path d="M 120.83666639777658 97.38593545837742 l 14.195747817545396 -1.7809279230780053 a35.30702486076486,35.30702486076486 0 0,0 0.07046214040038884,0.603676588446558 l -14.224300310949374 1.5363075963065944" fill="red" stroke="none" /><line stroke="#e1ed5e" stroke-width="0.3" x1="184.98032266829074" x2="189.97916517819016" y1="98.17113171792111" y2="98.06355123074" /><path d="M 185.9800911702706 98.14961562048488 a86.0,86.0 0 0,1 -9.607161424134198,41.387399972396054" fill="none" id="id40" stroke="none" /><text fill="#e1ed5e" style="font-size:6.75px; font-family:Arial;" text-anchor="middle"><textPath startOffset="21.466115282336823" xlink:href="#id40">April</textPath></text><path d="M 120.49622156327973 104.57218783832717 l 10.24827614018185 2.2861308064655814 a31.500169422904165,31.500169422904165 0 0,0 -0.12260981055809003,0.5281998548873774 l -10.207405763693208 -2.462199318701524" fill="red" stroke="none" /><path d="M 119.41010516605496 108.01547362559984 l 28.522747515541603 11.778572474727806 a51.85906504380439,51.85906504380439 0 0,0 -0.3478237346525752,0.8221525632484694 l -28.31577279969672 -12.267799563642438" fill="red" stroke="none" /><path d="M 119.12269723197855 108.67885076344098 l 15.003942373798374 6.809550721103561 a37.47690103689236,37.47690103689236 0 0,0 -0.2716636009522219,0.5851392281225805 l -14.88450415600632 -7.066810016504972" fill="red" stroke="none" /><path d="M 118.64920377521936 109.65438752849418 l 4.503757281308846 2.3315214232261 a26.071471364003223,26.071471364003223 0 0,0 -0.20974808065880335,0.3967643229784405 l -4.462956692425149 -2.408700761290675" fill="red" stroke="none" /><line stroke="#e1ed5e" stroke-width="0.3" x1="174.80103733775053" x2="179.2010983576182" y1="140.37084112569926" y2="142.7455964860345" /><path d="M 175.68104954172406 140.8457921977663 a86.0,86.0 0 0,1 -30.038265399797805,32.042727171017184" fill="none" id="id41" stroke="none" /><text fill="#e1ed5e" style="font-size:6.75px; font-family:Arial;" text-anchor="middle"><textPath startOffset="22.206326154141568" xlink:href="#id41">May</textPath></text><path d="M 118.30583269289576 110.29060199501025 l 6.2333989942725045 3.50409780326734 a28.150801663915765,28.150801663915765 0 0,0 -0.2410888326650249,0.42035870118965263 l -6.172158165455101 -3.6108763503153076" fill="red" stroke="none" /><path d="M 117.14729908036423 112.12312394758627 l 9.858943736629989 6.970263733739335 a33.07407752666503,33.07407752666503 0 0,0 -0.33266254867464745,0.4620391846203566 l -9.737501395579738 -7.138936523810822" fill="red" stroke="none" /><path d="M 116.93607887273984 112.41649034213515 l 4.32277813648085 3.169194793323747 a26.360056572021158,26.360056572021158 0 0,0 -0.27143167823712233,0.3636270897295413 l -4.267585191548636 -3.2431347625626037" fill="red" stroke="none" /><path d="M 114.55890576462653 115.13401014063108 l 30.547665286175864 31.754355972057407 a65.06244407243398,65.06244407243398 0 0,0 -0.8137891707038388,0.7694884550594397 l -29.996540281081217 -32.27547906386277" fill="red" stroke="none" /><path d="M 114.0293411484842 115.62618273729858 l 7.821716650867965 8.711996694088477 a32.708037314779695,32.708037314779695 0 0,0 -0.42217922074227215,0.37252407636875 l -7.670595077219105 -8.845343912229517" fill="red" stroke="none" /><line stroke="#e1ed5e" stroke-width="0.3" x1="143.8653032363475" x2="146.44561519142675" y1="172.8068346515853" y2="177.08958963109032" /><path d="M 144.38136562736335 173.6633856474863 a86.0,86.0 0 0,1 -40.68145358897372,12.25698825130547" fill="none" id="id42" stroke="none" /><text fill="#e1ed5e" style="font-size:6.75px; font-family:Arial;" text-anchor="middle"><textPath startOffset="21.466115282336833" xlink:href="#id42">June</textPath></text><path d="M 110.8373102113329 117.98757091392108 l 10.879116549678473 18.056960315993912 a42.08101024037669,42.08101024037669 0 0,0 -0.6236648764947091,0.36847220201532443 l -10.566683802155383 -18.241551090302984" fill="red" stroke="none" /><path d="M 108.59647513512805 119.15986991738527 l 3.3550848795466006 7.47783118585634 a29.196008406116228,29.196008406116228 0 0,0 -0.4602949888468338,0.2017797962876447 l -3.225869216042013 -7.534475535438439" fill="red" stroke="none" /><path d="M 106.91757812671514 119.82793768551818 l 3.207142767037842 9.192672026038013 a30.73606613096198,30.73606613096198 0 0,0 -0.5010421774795841,0.16998071023579467 l -3.0484308566210307 -9.246515723171932" fill="red" stroke="none" /><path d="M 100.90346689309514 120.98055641714683 l 0.6554498383356829 15.221036229341276 a36.23514221743578,36.23514221743578 0 0,0 -0.6233818779682933,0.021470532317652974 l -0.39334760869273744 -15.230063560085023" fill="red" stroke="none" /><line stroke="#e1ed5e" stroke-width="0.3" x1="102.19456741930631" x2="102.32365962044197" y1="184.97166512339345" y2="189.96999836594603" /><path d="M 102.22038585953345 185.97133177190398 a86.0,86.0 0 0,1 -42.740103519485714,-10.115201625700543" fill="none" id="id43" stroke="none" /><text fill="#e1ed5e" style="font-size:6.75px; font-family:Arial;" text-anchor="middle"><textPath startOffset="22.20632615414155" xlink:href="#id43">July</textPath></text><path d="M 98.73552117531835 120.96189622390904 l -0.7549446299786099 12.515093712536645 a33.53784319681451,33.53784319681451 0 0,0 -0.5759521514251584,-0.03972103245990571 l 0.9702595421826983 -12.500244335560454" fill="red" stroke="none" /><path d="M 97.2962882734958 120.8252237178851 l -8.111135179512582 62.47567115365527 a84.0,84.0 0 0,0 -1.4322856352526758,-0.19850173802958038 l 9.185349405952088 -62.32679485013308" fill="red" stroke="none" /><path d="M 91.07499286063937 119.00905698771935 l -1.9156049931229655 4.079979311124986 a25.507302260652768,25.507302260652768 0 0,0 -0.3958336514397869,-0.1900242074624843 l 1.9855513125629944 -4.046400827162939" fill="red" stroke="none" /><line stroke="#e1ed5e" stroke-width="0.3" x1="58.666819895761336" x2="56.23545636021788" y1="174.27360380694188" y2="178.64263932499728" /><path d="M 58.180547188652646 175.14741091055294 a86.0,86.0 0 0,1 -31.652253787137756,-30.449443065178592" fill="none" id="id44" stroke="none" /><text fill="#e1ed5e" style="font-size:6.75px; font-family:Arial;" text-anchor="middle"><textPath startOffset="22.20632615414155" xlink:href="#id44">August</textPath></text><path d="M 82.85270091963577 112.12312394758628 l -4.686410211828364 3.3132875096514938 a26.739365365189933,26.739365365189933 0 0,0 -0.26247754854478617,-0.3781184851793864 l 4.742748667535285 -3.232127762285095" fill="red" stroke="none" /><line stroke="#e1ed5e" stroke-width="0.3" x1="26.63291911575756" x2="22.317208475507996" y1="142.92168965132927" y2="145.44649492493687" /><path d="M 25.769776987707644 143.4266507060508 a86.0,86.0 0 0,1 -11.730757126820373,-40.83630448921669" fill="none" id="id45" stroke="none" /><text fill="#e1ed5e" style="font-size:6.75px; font-family:Arial;" text-anchor="middle"><textPath startOffset="21.46611528233685" xlink:href="#id45">September</textPath></text><line stroke="#e1ed5e" stroke-width="0.3" x1="15.007084014347285" x2="10.007500721073583" y1="101.09737516637583" y2="101.16192664675087" /><path d="M 14.007167355692545 101.11028546245083 a86.0,86.0 0 0,1 10.666146001902534,-42.60595125391555" fill="none" id="id46" stroke="none" /><text fill="#e1ed5e" style="font-size:6.75px; font-family:Arial;" text-anchor="middle"><textPath startOffset="22.20632615414155" xlink:href="#id46">October</textPath></text><path d="M 79.12142395522702 97.74499172005258 l -13.236584293161387 -1.4296284916793276 a34.313564563038256,34.313564563038256 0 0,0 0.0684794941916902,-0.5866904865120482 l 13.210014445966108 1.6572627165162377" fill="red" stroke="none" /><path d="M 80.803312248108 91.48605970444005 l -22.5709786039458 -10.010475074139578 a45.691267410761824,45.691267410761824 0 0,0 0.3250556898178922,-0.7162171247492537 l 22.395320597164556 10.397514207730902" fill="red" stroke="none" /><line stroke="#e1ed5e" stroke-width="0.3" x1="26.266209847984243" x2="21.928928074336255" y1="57.711370442889674" y2="55.22380399835377" /><path d="M 25.398753493254645 57.213857153982495 a86.0,86.0 0 0,1 29.58750427330803,-30.492523968695096" fill="none" id="id47" stroke="none" /><text fill="#e1ed5e" style="font-size:6.75px; font-family:Arial;" text-anchor="middle"><textPath startOffset="21.46611528233685" xlink:href="#id47">November</textPath></text><path d="M 89.00827224532344 82.1063720568725 l -2.6565985713979248 -4.324723782447548 a26.075505074770483,26.075505074770483 0 0,0 0.3844745482706255,-0.2316416134179721 l 2.5817619569096504 4.36981200532414" fill="red" stroke="none" /><line stroke="#e1ed5e" stroke-width="0.3" x1="56.762969772571076" x2="54.21961505331055" y1="26.818313649435495" y2="22.513508569990535" /><path d="M 56.25429882871897 25.957352633546506 a86.0,86.0 0 0,1 42.265352541879196,-11.944610805530505" fill="none" id="id48" stroke="none" /><text fill="#e1ed5e" style="font-size:6.75px; font-family:Arial;" text-anchor="middle"><textPath startOffset="22.20632615414155" xlink:href="#id48">December</textPath></text><path d="M 89.3179101791058 81.91981866633112 l -10.507497078320947 -17.78467095150633 a41.656766826013126,41.656766826013126 0 0,0 0.6204939418146267,-0.3594301412117037 l 10.199806404041 17.962905250108083" fill="red" stroke="none" /></svg>