<?xml version="1.0" encoding="utf-8" ?>
<svg baseProfile="full" height="200mm" version="1.1" viewBox="0,0,200,200" width="200mm" xmlns="http://www.w3.org/2000/svg" xmlns:ev="http://www.w3.org/2001/xml-events" xmlns:xlink="http://www.w3.org/1999/xlink"><defs /><rect fill="#1a1a1a" height="200" width="200" x="0" y="0" /><rect fill="#1a1a1a" height="200" width="180" x="10" y="0" /><text alignment-baseline="middle" fill="#e1ed5e" style="dominant-baseline: central; font-size:9.0px; font-family:Arial;" text-anchor="middle" x="100.0" y="100.0">2024</text><line stroke="#e1ed5e" stroke-width="0.3" x1="100.0" x2="100.0" y1="15.0" y2="10.0" /><path d="M 100.0 14.0 a86.0,86.0 0 0,1 42.35913384403234,11.155469271406648" fill="none" id="id97" stroke="none" /><text fill="#e1ed5e" style="font-size:6.75px; font-family:Arial;" text-anchor="middle"><textPath startOffset="22.145653131862478" xlink:href="#id97">January</textPath></text><line stroke="#e1ed5e" stroke-width="0.3" x1="143.13028292997686" x2="145.6673583964461" y1="26.7553504044142" y2="22.446841604673864" /><path d="M 143.63769802327073 25.89364864446614 a86.0,86.0 0 0,1 29.32050498858742,28.57503671076993" fill="none" id="id98" stroke="none" /><text fill="#e1ed5e" style="font-size:6.75px; font-family:Arial;" text-anchor="middle"><textPath startOffset="20.669276256404974" xlink:href="#id98">February</textPath></text><path d="M 111.27062007382361 82.28071324371311 l 5.850084368245228 -9.197304300067831 a31.900178599620897,31.900178599620897 0 0,0 0.45953630285489816,0.2978658795504426 l -6.0071063033571335 9.095524578813492" fill="red" stroke="none" /><line stroke="#e1ed5e" stroke-width="0.3" x1="172.87174338648825" x2="177.1583165268699" y1="56.24261187166439" y2="53.66864786411523" /><path d="M 173.72905801456457 55.72781907015455 a86.0,86.0 0 0,1 12.242430191666344,42.057860355516425" fill="none" id="id99" stroke="none" /><text fill="#e1ed5e" style="font-size:6.75px; font-family:Arial;" text-anchor="middle"><textPath startOffset="22.145653131862474" xlink:href="#id99">March</textPath></text><line stroke="#e1ed5e" stroke-width="0.3" x1="184.99686870605535" x2="189.99668451229388" y1="99.2704041080226" y2="99.22748670261217" /><path d="M 185.99683186730306 99.26182062694052 a86.0,86.0 0 0,1 -10.086455211305974,41.156179273409016" fill="none" id="id100" stroke="none" /><text fill="#e1ed5e" style="font-size:6.75px; font-family:Arial;" text-anchor="middle"><textPath startOffset="21.40746469413373" xlink:href="#id100">April</textPath></text><path d="M 120.82617615685814 102.69636545807757 l 22.42156266484614 2.902920182287244 a43.608702260818795,43.608702260818795 0 0,0 -0.10249183726107663,0.7415798781695131 l -22.368426311029854 -3.287388368656842" fill="red" stroke="none" /><path d="M 120.7213421655516 103.40968896794604 l 10.092142332478774 1.6606581802988158 a31.22786011103024,31.22786011103024 0 0,0 -0.091579688774513,0.5282073084961524 l -10.062147826212026 -1.8336585217155563" fill="red" stroke="none" /><path d="M 120.592083275326 104.11899336999214 l 30.817921352985483 6.16444737682213 a52.42840574990096,52.42840574990096 0 0,0 -0.184104317039369,0.8810058035463578 l -30.70755932512175 -6.692569631653897" fill="red" stroke="none" /><path d="M 120.51834098615036 104.47187691870673 l 23.589065543588333 5.141127043820721 a45.142808463399845,45.142808463399845 0 0,0 -0.17151932353152688,0.7557457869189785 l -23.497335358499143 -5.545307164678717" fill="red" stroke="none" /><path d="M 120.35273937422433 105.17358676015961 l 19.767438440910954 5.024805551712845 a41.39608524564771,41.39608524564771 0 0,0 -0.1809807656692648,0.6872134456799117 l -19.67826819443696 -5.36339950176556" fill="red" stroke="none" /><path d="M 119.58574465831526 107.57618678355244 l 16.880283266145653 6.529656197131029 a39.09918156155268,39.09918156155268 0 0,0 -0.24751890497775667,0.6239093318599273 l -16.76570568620177 -6.818466546204521" fill="red" stroke="none" /><path d="M 118.70294669586154 109.54985784667822 l 7.248851560058286 3.701315256678031 a29.139138994333308,29.139138994333308 0 0,0 -0.2312980641606083,0.44354453582089143 l -7.184245426922729 -3.825206035603425" fill="red" stroke="none" /><line stroke="#e1ed5e" stroke-width="0.3" x1="174.33088141563837" x2="178.70328620479359" y1="141.23008692659167" y2="143.65538615756765" /><path d="M 175.20536237346943 141.71514677278685 a86.0,86.0 0 0,1 -30.301960400862466,31.631185727798858" fill="none" id="id101" stroke="none" /><text fill="#e1ed5e" style="font-size:6.75px; font-family:Arial;" text-anchor="middle"><textPath startOffset="22.145653131862474" xlink:href="#id101">May</textPath></text><path d="M 117.423217284605 111.72311816256416 l 14.456408481909511 9.726916795640596 a38.42414005181146,38.42414005181146 0 0,0 -0.3729159093621278,0.5440954564863165 l -14.287302835732063 -9.973646987196956" fill="red" stroke="none" /><path d="M 116.79662413953412 112.60449989151573 l 8.996840228456998 6.751396634318924 a32.24831056693738,32.24831056693738 0 0,0 -0.3360704286304064,0.4399269790828946 l -8.879617822472287 -6.904844526642696" fill="red" stroke="none" /><path d="M 116.57777611688842 112.89097897827486 l 6.138143361594882 4.773057404204391 a28.775530908646797,28.775530908646797 0 0,0 -0.3065739162083626,0.3873461281495739 l -6.0553030147449585 -4.877723476268648" fill="red" stroke="none" /><path d="M 115.16444852881244 114.52719865689866 l 16.692178862242887 15.990729757666763 a44.11562833564854,44.11562833564854 0 0,0 -0.5285749697511725,0.5423644838779993 l -16.41521709134091 -16.2749169336125" fill="red" stroke="none" /><path d="M 114.39649973595853 115.28858382429668 l 17.258530110290973 18.32796090123805 a46.17480908299268,46.17480908299268 0 0,0 -0.5817371332676798,0.5384472057214438 l -16.941363205709326 -18.62152585309187" fill="red" stroke="none" /><path d="M 114.13192950727249 115.5334660781643 l 14.93837433212113 16.419890209012884 a43.19837431350802,43.19837431350802 0 0,0 -0.5528054267816314,0.49432202139555487 l -14.654303878516123 -16.673907760291826" fill="red" stroke="none" /><path d="M 113.86319453409587 115.77377054828091 l 35.476895630395575 40.36619482348379 a74.74048574489656,74.74048574489656 0 0,0 -0.9709875335095027,0.8387159051534286 l -34.778728617123214 -40.96925486110194" fill="red" stroke="none" /><path d="M 113.59037401385872 116.0094264158162 l 6.581414573080865 7.752889818357706 a31.169676411683696,31.169676411683696 0 0,0 -0.4108841155534578,0.3427741427946632 l -6.447356123365513 -7.864726145064239" fill="red" stroke="none" /><path d="M 113.31354834802062 116.24036423190432 l 4.856836737849719 5.924551109569553 a28.660885650368925,28.660885650368925 0 0,0 -0.38316769367987014,0.3086527710106233 l -4.754418273814596 -6.007052174373579" fill="red" stroke="none" /><path d="M 113.03279911837588 116.46651593811092 l 12.886610683274238 16.2818116259594 a41.76444376152428,41.76444376152428 0 0,0 -0.5659878743986185,0.44011559447942133 l -12.60521286424039 -16.500628272059615" fill="red" stroke="none" /><path d="M 112.7482090630111 116.68781488649013 l 6.895282084446743 9.026145590069289 a32.35853068126417,32.35853068126417 0 0,0 -0.44430883834198986,0.33341763548186476 l -6.739320257193986 -9.14318225281517" fill="red" stroke="none" /><path d="M 112.45986205192187 116.90419585922612 l 18.362636286784443 24.91244276943325 a51.948606045200485,51.948606045200485 0 0,0 -0.722379973800011,0.5229473926761566 l -17.932275302610467 -25.223990933482487" fill="red" stroke="none" /><path d="M 111.8722381534696 117.32195027204791 l 7.22528969110816 10.541913589725269 a33.780326805432956,33.780326805432956 0 0,0 -0.4811343398476807,0.3237286561928738 l -7.043259063163476 -10.664391919975264" fill="red" stroke="none" /><path d="M 111.5731344415666 117.5232005979908 l 7.71764141337404 11.685492751573703 a35.00402548671301,35.00402548671301 0 0,0 -0.504248601836786,0.32684785155183393 l -7.515907179280244 -11.81625444482943" fill="red" stroke="none" /><line stroke="#e1ed5e" stroke-width="0.3" x1="143.1302829299769" x2="145.66735839644613" y1="173.24464959558577" y2="177.55315839532614" /><path d="M 143.63769802327073 174.10635135553383 a86.0,86.0 0 0,1 -40.68552437913181,11.842963189579606" fill="none" id="id102" stroke="none" /><text fill="#e1ed5e" style="font-size:6.75px; font-family:Arial;" text-anchor="middle"><textPath startOffset="21.407464694133747" xlink:href="#id102">June</textPath></text><path d="M 110.65571695917076 118.09573695890943 l 10.203684765247235 17.328087469950454 a41.10914712648929,41.10914712648929 0 0,0 -0.6111707320345243,0.35285958666095457 l -9.904721565352313 -17.50069395388758" fill="red" stroke="none" /><path d="M 110.34350942703117 118.27599006163325 l 4.766951995077094 8.422747414783144 a30.678145759214708,30.678145759214708 0 0,0 -0.46054589272318575,0.2554570432776639 l -4.621661914197814 -8.503337373493952" fill="red" stroke="none" /><path d="M 109.71004243097381 118.62028667847754 l 14.905880868656821 28.583991979712547 a53.23708860872614,53.23708860872614 0 0,0 -0.8139514260706618,0.4156093977852038 l -14.413002220872578 -28.83565932917059" fill="red" stroke="none" /><path d="M 109.3889696526874 118.78422872680471 l 7.040733537443105 14.086183475304024 a36.74777741921711,36.74777741921711 0 0,0 -0.5666852895053439,0.277194172059053 l -6.797887998675691 -14.2049713974603" fill="red" stroke="none" /><path d="M 109.06512990194946 118.94263497670748 l 9.483192436377747 19.816224883610992 a42.96847075750189,42.96847075750189 0 0,0 -0.6680805071431675,0.31269541070536994 l -9.141623215363074 -19.9760965258869" fill="red" stroke="none" /><path d="M 108.73861861582097 119.09545874513695 l 8.58411122982032 18.757832222581918 a41.6286993117952,41.6286993117952 0 0,0 -0.6523546190507137,0.2917899234856167 l -8.260843207913979 -18.902425896977384" fill="red" stroke="none" /><path d="M 108.07796709384702 119.3841803445677 l 2.5057922696432953 6.0129892454980425 a27.514217878232138,27.514217878232138 0 0,0 -0.4375357292509446,0.1779419720532294 l -2.40220207920191 -6.0551184741305635" fill="red" stroke="none" /><path d="M 107.74402155503746 119.51999308798841 l 8.35672853616601 21.06441493025606 a43.661519988323064,43.661519988323064 0 0,0 -0.6990578134174956,0.27041057970211785 l -7.993898460254984 -21.20476539809622" fill="red" stroke="none" /><path d="M 106.38641147887787 120.00534299687104 l 2.305242204294372 7.22113837172843 a28.58017024901873,28.58017024901873 0 0,0 -0.46865949235111054,0.14519190872534976 l -2.180942079071637 -7.2596468682604245" fill="red" stroke="none" /><path d="M 106.0420521117495 120.11202640906438 l 1.8595218345730296 6.1897434105936 a27.46302908412462,27.46302908412462 0 0,0 -0.4526691689115461,0.13176539779899485 l -1.7529926532798765 -6.220752502695113" fill="red" stroke="none" /><path d="M 105.69591212413111 120.21278271476187 l 3.6054710937429557 12.79454496733449 a34.29284780357318,34.29284780357318 0 0,0 -0.567985251476121,0.15480690600804195 l -3.38530444133214 -12.854552367486674" fill="red" stroke="none" /><path d="M 104.29559338865022 120.5559693870025 l 7.8782466504184265 37.70026217964347 a59.51462759392442,59.51462759392442 0 0,0 -1.0018395246080223,0.20039596307388136 l -7.229910640279446 -37.82994753938021" fill="red" stroke="none" /><path d="M 103.94208987418118 120.62667999033965 l 1.9368957864678507 10.134657209054145 a31.318083253815608,31.318083253815608 0 0,0 -0.528925540089747,0.09638785284112782 l -1.7626355128270466 -10.166413235826637" fill="red" stroke="none" /><path d="M 103.2317021107853 120.74984581791261 l 1.6258316908419195 10.439005748165384 a31.564855403514798,31.564855403514798 0 0,0 -0.5361138794074913,0.07879027817753417 l -1.4463927058267425 -10.4653770996418" fill="red" stroke="none" /><path d="M 102.51750503828377 120.84855314841334 l 3.3064433370479 27.382094016246494 a48.581001436780184,48.581001436780184 0 0,0 -0.8288013656703965,0.09286892173758556 l -2.835906069776704 -27.43481869849105" fill="red" stroke="none" /><path d="M 102.15924093988457 120.88869738790638 l 1.406445593422854 13.606085291776198 a34.67858348566646,34.67858348566646 0 0,0 -0.5926742263902329,0.05612686544022526 l -1.1726718036476058 -13.628223912721607" fill="red" stroke="none" /><path d="M 101.44090949804482 120.95050786540614 l 1.2145825652495439 17.659763934496794 a38.70148222691992,38.70148222691992 0 0,0 -0.6631879504858169,0.03989574026026956 l -0.9112502626312619 -17.678011652581755" fill="red" stroke="none" /><path d="M 101.08105385017728 120.97215588758144 l 0.8131961441861542 15.775787950114996 a36.79673299818392,36.79673299818392 0 0,0 -0.6311064438092976,0.027102426181065672 l -0.5422639397760269 -15.787422944721893" fill="red" stroke="none" /><line stroke="#e1ed5e" stroke-width="0.3" x1="101.45913802915013" x2="101.54496967792366" y1="184.9874750549273" y2="189.98673829345242" /><path d="M 101.47630435890484 185.9873277026323 a86.0,86.0 0 0,1 -42.54439059252881,-10.42667462771756" fill="none" id="id103" stroke="none" /><text fill="#e1ed5e" style="font-size:6.75px; font-family:Arial;" text-anchor="middle"><textPath startOffset="22.145653131862474" xlink:href="#id103">July</textPath></text><path d="M 99.63950707515114 120.99690560180557 l -0.6548466287492934 38.14153316122539 a59.14715423194816,59.14715423194816 0 0,0 -1.015040328371351,-0.026143838262918138 l 1.3095002711913883 -38.12467160561242" fill="red" stroke="none" /><path d="M 98.91894614982273 120.97215588758144 l -0.7137696492966955 13.846940511261328 a34.86532468551196,34.86532468551196 0 0,0 -0.5974516191817866,-0.03594120580672787 l 0.9513656206109283 -13.832647327629909" fill="red" stroke="none" /><path d="M 98.55909050195518 120.95050786540614 l -0.7393597498132952 10.750128495125185 a31.775523908439276,31.775523908439276 0 0,0 -0.5438623095216117,-0.04209838238261148 l 0.9237910541101432 -10.735852345747519" fill="red" stroke="none" /><path d="M 98.19965949673042 120.92268563240118 l -0.7787641560020053 9.050419955681207 a30.083863439355863,30.083863439355863 0 0,0 -0.5141481773071617,-0.04869036694883296 l 0.9340118966941823 -9.03571783322719" fill="red" stroke="none" /><path d="M 97.84075906011543 120.88869738790638 l -2.290557349302584 22.159064528382117 a43.277136120772944,43.277136120772944 0 0,0 -0.7383163882670573,-0.08272989128593959 l 2.6706096391704404 -22.116478876589206" fill="red" stroke="none" /><path d="M 97.48249496171623 120.84855314841334 l -1.8504139353778586 15.324081855498342 a36.43539816286752,36.43539816286752 0 0,0 -0.6203077576887884,-0.08031125822676782 l 2.113199514957441 -15.290059001071176" fill="red" stroke="none" /><path d="M 97.12497278360702 120.80226474461374 l -3.996177238872158 28.914347807014124 a50.18919220583986,50.18919220583986 0 0,0 -0.8524392776025493,-0.1252792184488677 l 4.4919416220823924 -28.841487515266373" fill="red" stroke="none" /><path d="M 96.76829788921471 120.74984581791261 l -1.7546517197266989 11.266122742859194 a32.40194388315909,32.40194388315909 0 0,0 -0.5488619230500889,-0.0903150205714335 l 1.9477911458298511 -11.234341723792092" fill="red" stroke="none" /><path d="M 94.6519064749342 120.30758222061772 l -3.450654847242421 13.102698503105607 a34.54945485759791,34.54945485759791 0 0,0 -0.5722353803352237,-0.1559652975280701 l 3.67507162851234 -13.041532711433392" fill="red" stroke="none" /><path d="M 93.95794788825049 120.11202640906438 l -3.69037497889807 12.28405807533781 a33.82641611219397,33.82641611219397 0 0,0 -0.5546877735531376,-0.17184369014861894 l 3.900703385322841 -12.218897797382542" fill="red" stroke="none" /><path d="M 91.59046798132341 119.24265499422711 l -7.146876666195591 16.353452447587692 a38.84693959863491,38.84693959863491 0 0,0 -0.6087622458089259,-0.2722916094071659 l 7.426552314860151 -16.22835708727067" fill="red" stroke="none" /><path d="M 91.26138138417905 119.09545874513695 l -6.115829545068616 13.364191287478002 a35.69710787170854,35.69710787170854 0 0,0 -0.5550242191552246,-0.2597793593803771 l 6.34434247809533 -13.257235696527099" fill="red" stroke="none" /><path d="M 89.97174638481275 118.45085714620012 l -4.127343202757749 7.593846620721042 a29.643001123012017,29.643001123012017 0 0,0 -0.445006113548796,-0.24683738972347716 l 4.257093504462647 -7.521876315564416" fill="red" stroke="none" /><line stroke="#e1ed5e" stroke-width="0.3" x1="58.13341422392154" x2="55.67067388415222" y1="173.97424548756322" y2="178.32567169271397" /><path d="M 57.64086615596768 174.84453072859336 a86.0,86.0 0 0,1 -31.369924170532247,-30.572349798747897" fill="none" id="id104" stroke="none" /><text fill="#e1ed5e" style="font-size:6.75px; font-family:Arial;" text-anchor="middle"><textPath startOffset="22.145653131862474" xlink:href="#id104">August</textPath></text><path d="M 89.03521579738668 117.91015095944536 l -3.6561925960820902 5.97211583215925 a28.00242185335707,28.00242185335707 0 0,0 -0.4078164325485453,-0.25450761588322995 l 3.758173157420348 -5.908472419434472" fill="red" stroke="none" /><path d="M 88.1277618465304 117.32195027204791 l -8.639107176848823 12.604715553868362 a36.28113304068163,36.28113304068163 0 0,0 -0.510708620219199,-0.35651428054326084 l 8.854210888241788 -12.45455645751997" fill="red" stroke="none" /><path d="M 84.83555147118756 114.52719865689866 l -5.41324524692405 5.185766493991756 a28.49635899844407,28.49635899844407 0 0,0 -0.33536708982013735,-0.35614822760139625 l 5.5014681704804405 -5.09207680644587" fill="red" stroke="none" /><path d="M 84.3458050057657 113.99807769240083 l -7.995217433070358 7.149372729608738 a31.72553179236094,31.72553179236094 0 0,0 -0.35953931221961083,-0.4090897375846952 l 8.116767809248561 -7.011070714212743" fill="red" stroke="none" /><path d="M 83.8745106332314 113.45245675266167 l -12.385913043238832 10.332769180932331 a37.13000188658076,37.13000188658076 0 0,0 -0.40410381108827165,-0.49294094316710874 l 12.561463673565733 -10.118625956066726" fill="red" stroke="none" /><path d="M 83.64595745247003 113.17365903436017 l -5.0319399681627255 4.053374646011111 a27.461444564810503,27.461444564810503 0 0,0 -0.29257366724875905,-0.3696572709411678 l 5.100780066053046 -3.9663974311552623" fill="red" stroke="none" /><path d="M 82.98947788004972 112.3143062007846 l -20.944078154508077 15.161897422613034 a46.85609296077004,46.85609296077004 0 0,0 -0.46607287435149786,-0.6555898656805115 l 21.201266127389534 -14.800130330223018" fill="red" stroke="none" /><path d="M 82.78059297857968 112.02048342749411 l -6.751112992939746 4.71280118692953 a29.233348144647124,29.233348144647124 0 0,0 -0.2837169704347505,-0.41395153884868685 l 6.831019700189822 -4.596214913010792" fill="red" stroke="none" /><path d="M 82.576782715395 111.72311816256416 l -5.396606068436671 3.6310774057208337 a27.504466172117727,27.504466172117727 0 0,0 -0.2602126309014944,-0.393995088576935 l 5.458143138258892 -3.5379024388048377" fill="red" stroke="none" /><line stroke="#e1ed5e" stroke-width="0.3" x1="26.387840678322732" x2="22.057713659400548" y1="142.50000000000003" y2="145.00000000000006" /><path d="M 25.521815274538298 143.00000000000003 a86.0,86.0 0 0,1 -11.493303480769221,-40.785679425670985" fill="none" id="id105" stroke="none" /><text fill="#e1ed5e" style="font-size:6.75px; font-family:Arial;" text-anchor="middle"><textPath startOffset="21.40746469413373" xlink:href="#id105">September</textPath></text><path d="M 81.63589988554817 110.18625677009913 l -16.72020268621662 9.27441457781378 a40.12014496883667,40.12014496883667 0 0,0 -0.3288985490710652,-0.6051362856751372 l 16.876946584903013 -8.986023458664055" fill="red" stroke="none" /><path d="M 81.1358732173502 109.22738970284198 l -25.729663045068293 12.585667525200293 a49.642880222973986,49.642880222973986 0 0,0 -0.36787913606221057,-0.768725905237648 l 25.941921439090418 -12.142129117897541" fill="red" stroke="none" /><path d="M 80.68587082218212 108.24405325689762 l -6.187136115418146 2.6409204978168552 a27.727192162150622,27.727192162150622 0 0,0 -0.18309737887908645,-0.4393670550494398 l 6.231559338833717 -2.534320933326134" fill="red" stroke="none" /><path d="M 79.48165901384964 104.47187691870673 l -7.925681130819651 1.72736531369009 a29.111733003148608,29.111733003148608 0 0,0 -0.102226944453429,-0.48919293578013123 l 7.954165786097447 -1.5910559266245496" fill="red" stroke="none" /><path d="M 79.22317932658666 103.0534771498775 l -6.519171574519833 0.9580937214517966 a27.589198858519353,27.589198858519353 0 0,0 -0.06484182131031434,-0.46916311808429106 l 6.534657912385359 -0.8460422951674199" fill="red" stroke="none" /><line stroke="#e1ed5e" stroke-width="0.3" x1="15.003131293944662" x2="10.003315487706104" y1="100.72959589197737" y2="100.7725132973878" /><path d="M 14.003168132696942 100.73817937305945 a86.0,86.0 0 0,1 10.791469493833604,-42.45332614584628" fill="none" id="id106" stroke="none" /><text fill="#e1ed5e" style="font-size:6.75px; font-family:Arial;" text-anchor="middle"><textPath startOffset="22.145653131862435" xlink:href="#id106">October</textPath></text><path d="M 79.00077361379809 99.81974689727619 l -6.448637185376078 -0.05535379445063632 a27.448874753875685,27.448874753875685 0 0,0 0.008089011378762327,-0.4711443599149385 l 6.446736742398649 0.16604507033462723" fill="red" stroke="none" /><path d="M 79.0935383218832 98.0201363427161 l -10.087283011872792 -0.9552761889329541 a31.132414873008294,31.132414873008294 0 0,0 0.054952577886223146,-0.5316163420891886 l 10.069398041504904 1.1282970533050556" fill="red" stroke="none" /><path d="M 79.34024301695615 96.23510406497455 l -18.945393870642125 -3.452481867505865 a40.25740325067793,40.25740325067793 0 0,0 0.12973179719360148,-0.6788115823564077 l 18.883335781166362 3.777196014895587" fill="red" stroke="none" /><path d="M 79.64726062577567 94.8264132398404 l -9.61834644811168 -2.4449460548587774 a30.924230428958815,30.924230428958815 0 0,0 0.13519855482842913,-0.5133709340382576 l 9.574958412478525 2.6096974932698194" fill="red" stroke="none" /><path d="M 80.16572619554312 93.10060997987247 l -10.256398061921075 -3.5677076523453386 a31.859200665665124,31.859200665665124 0 0,0 0.18411557977719095,-0.5150040449351899 l 10.193642312099941 3.74324665366145" fill="red" stroke="none" /><path d="M 80.41425534168474 92.42381321644754 l -9.109128242842306 -3.5236064906935547 a30.76688384520903,30.76688384520903 0 0,0 0.19477096693072446,-0.49095007047797135 l 9.047298600945451 3.6794575783851085" fill="red" stroke="none" /><path d="M 80.5471966667186 92.08871423366112 l -19.802701649881747 -8.053586365607787 a42.377727802143355,42.377727802143355 0 0,0 0.279842648258344,-0.6715204826809729 l 19.661533157086925 8.392339357730023" fill="red" stroke="none" /><path d="M 81.1358732173502 90.77261029715801 l -6.40261158428425 -3.131838164831424 a28.127541328530164,28.127541328530164 0 0,0 0.21588569297489285,-0.43191600204228386 l 6.3479059780976135 3.2412860230374783" fill="red" stroke="none" /><path d="M 81.29705330413844 90.45014215332179 l -12.022464982127614 -6.138756283328893 a34.499036741656596,34.499036741656596 0 0,0 0.2738433834748207,-0.5251307954165183 l 11.915313529677855 6.344233321849898" fill="red" stroke="none" /><line stroke="#e1ed5e" stroke-width="0.3" x1="26.387840678322718" x2="22.05771365940052" y1="57.49999999999999" y2="54.99999999999999" /><path d="M 25.521815274538284 56.99999999999999 a86.0,86.0 0 0,1 29.574782752854787,-30.34633250058573" fill="none" id="id107" stroke="none" /><text fill="#e1ed5e" style="font-size:6.75px; font-family:Arial;" text-anchor="middle"><textPath startOffset="21.40746469413373" xlink:href="#id107">November</textPath></text><path d="M 83.42222388311158 87.10902102172516 l -5.051668309863549 -3.9282078324925056 a27.399231945173977,27.399231945173977 0 0,0 0.2919108552749296,-0.3688198296645901 l 4.983491023947058 4.014347606071778" fill="red" stroke="none" /><path d="M 83.64595745247003 86.82634096563983 l -5.032688727141975 -4.053977793242924 a27.46240603586688,27.46240603586688 0 0,0 0.2988866786122678,-0.3645931496128202 l 4.962355229291078 4.139773224554237" fill="red" stroke="none" /><path d="M 83.8745106332314 86.54754324733833 l -5.652034995977381 -4.715128615234855 a28.360566381329605,28.360566381329605 0 0,0 0.31507972946578844,-0.371163129053988 l 5.570260703004478 4.8114585267384" fill="red" stroke="none" /><path d="M 84.10781606972428 86.27271002978789 l -4.789960283780285 -4.13745360925424 a27.329474061004078,27.329474061004078 0 0,0 0.3097196406833145,-0.3524040966473548 l 4.718229579138379 4.219069983712895" fill="red" stroke="none" /><path d="M 84.83555147118756 85.47280134310135 l -5.582978723810541 -5.3483673253224255 a28.73140895808117,28.73140895808117 0 0,0 0.3442477007327282,-0.35322846751897585 l 5.49034422192701 5.443418484909132" fill="red" stroke="none" /><path d="M 85.60350026404147 84.71141617570332 l -13.944703637482176 -14.808792024225074 a41.34097049685587,41.34097049685587 0 0,0 0.5208376199264889,-0.482079525349783 l 13.688436246241734 15.045989295707223" fill="red" stroke="none" /><path d="M 86.13680546590413 84.22622945171909 l -12.468549838082705 -14.18692089561365 a39.88738890273485,39.88738890273485 0 0,0 0.5181951519688429,-0.4476046302662597 l 12.223175206351014 14.398869658344621" fill="red" stroke="none" /><path d="M 86.40962598614128 83.9905735841838 l -8.570032261788375 -10.095476455347105 a34.242511009191624,34.242511009191624 0 0,0 0.45139075762322056,-0.3765662242779074 l 8.395467170003245 10.241104863536895" fill="red" stroke="none" /><path d="M 87.25179093698888 83.31218511350988 l -4.074669199827624 -5.3338727812128655 a27.71216268680873,27.71216268680873 0 0,0 0.38051044197906053,-0.2855421294661872 l 3.9825057689378114 5.403033937943054" fill="red" stroke="none" /><line stroke="#e1ed5e" stroke-width="0.3" x1="56.869717070023135" x2="54.33264160355391" y1="26.7553504044142" y2="22.446841604673864" /><path d="M 56.362301976729285 25.89364864446614 a86.0,86.0 0 0,1 42.16139366436587,-11.88097634709845" fill="none" id="id108" stroke="none" /><text fill="#e1ed5e" style="font-size:6.75px; font-family:Arial;" text-anchor="middle"><textPath startOffset="22.145653131862474" xlink:href="#id108">December</textPath></text><path d="M 89.97174638481275 81.54914285379989 l -4.950962868708341 -9.10921403985383 a31.367729440489796,31.367729440489796 0 0,0 0.4753124919688088,-0.2530771298908088 l 4.79386156095297 9.192861637467216" fill="red" stroke="none" /><path d="M 91.5904679813234 80.7573450057729 l -7.583441226528645 -17.352397596799133 a39.937113908766946,39.937113908766946 0 0,0 0.6305593414795353,-0.2691482875014541 l 7.284446809878679 17.48002053395999" fill="red" stroke="none" /><path d="M 92.25597844496254 80.48000691201159 l -7.006771768798188 -17.661642019459897 a40.00074865481828,40.00074865481828 0 0,0 0.6404457723225976,-0.24773818307656137 l 6.702553733982061 17.7793200906745" fill="red" stroke="none" /><path d="M 92.93061703081487 80.22567764915836 l -7.875706901784544 -22.029753897260907 a44.39523062456745,44.39523062456745 0 0,0 0.719824751256956,-0.2503924143644234 l 7.496376378482584 22.161704744193916" fill="red" stroke="none" /><path d="M 93.61358852112211 79.99465700312896 l -4.387507546874815 -13.743804899964406 a35.42714093651854,35.42714093651854 0 0,0 0.5809365634317897,-0.1799756323506092 l 4.150930350571409 13.817097120121657" fill="red" stroke="none" /><path d="M 94.6519064749342 79.69241777938228 l -1.7211207730196554 -6.535375914032787 a27.758209456138488,27.758209456138488 0 0,0 0.46183673588171636,-0.11739709226262618 l 1.608678743912561 6.563958238130677" fill="red" stroke="none" /><path d="M 96.41257539226777 79.30868818359171 l -4.344780508749731 -25.059539393978543 a46.43339600422197,46.43339600422197 0 0,0 0.7865430270641576,-0.12942535578868358 l 3.9139599786325006 25.130430748262892" fill="red" stroke="none" /><path d="M 96.76829788921471 79.25015418208739 l -1.9842101215351375 -12.740052356555543 a33.893642768984215,33.893642768984215 0 0,0 0.5756672121523,-0.0846032559971985 l 1.7652178037751527 12.772236685851627" fill="red" stroke="none" /><path d="M 97.12497278360702 79.19773525538626 l -1.3985759765958157 -10.119399066803862 a31.215588687664642,31.215588687664642 0 0,0 0.5314412027892835,-0.06880570352461964 l 1.224656951915738 10.141916366528875" fill="red" stroke="none" /><path d="M 98.5590905019552 79.04949213459386 l -4.322728494134429 -62.8515235962184 a84.0,84.0 0 0,0 1.439422591470065,-0.0865920887012237 l 3.24316155053188 62.91646766274432" fill="red" stroke="none" /><path d="M 99.63950707515114 79.00309439819443 l -0.6007542092261694 -34.99092090724901 a55.99607765960721,55.99607765960721 0 0,0 0.9612471340750129,-0.008251150552634551 l 8.571566897710033e-15 34.99607765960721" fill="red" stroke="none" /></svg>