<?xml version="1.0" encoding="utf-8" ?>
<svg baseProfile="full" height="200mm" version="1.1" viewBox="0,0,200,200" width="200mm" xmlns="http://www.w3.org/2000/svg" xmlns:ev="http://www.w3.org/2001/xml-events" xmlns:xlink="http://www.w3.org/1999/xlink"><defs /><rect fill="#1a1a1a" height="200" width="200" x="0" y="0" /><rect fill="#1a1a1a" height="200" width="180" x="10" y="0" /><text alignment-baseline="middle" fill="#e1ed5e" style="dominant-baseline: central; font-size:9.0px; font-family:Arial;" text-anchor="middle" x="100.0" y="100.0">2025</text><line stroke="#e1ed5e" stroke-width="0.3" x1="100.0" x2="100.0" y1="15.0" y2="10.0" /><path d="M 100.0 14.0 a86.0,86.0 0 0,1 42.46469731375804,11.215312516191453" fill="none" id="id109" stroke="none" /><text fill="#e1ed5e" style="font-size:6.75px; font-family:Arial;" text-anchor="middle"><textPath startOffset="22.20632615414155" xlink:href="#id109">January</textPath></text><path d="M 100.0 79.0 l 0.0 -8.176269936960686 a29.176269936960686,29.176269936960686 0 0,0 0.5022215257236766,0.004322779228898039 l -0.1407410464511483 8.175058534340348" fill="#ff4f07" stroke="none" /><path d="M 101.08401301168833 79.027996857942 l 0.6475456753130219 -12.527829270369793 a33.544553464717296,33.544553464717296 0 0,0 0.576387997371366,0.03476929804878518 l -0.8630957215239998 12.514826702940704" fill="#ff8c0c" stroke="none" /><path d="M 102.88285421437855 79.19881850522331 l 0.943755862321013 -6.809653044883733 a27.874739974672465,27.874739974672465 0 0,0 0.4747081751156295,0.06995964520209388 l -1.0608330178652983 6.792398915520669" fill="#ff3d05" stroke="none" /><path d="M 103.59715602781102 79.31037775812273 l 1.3650044298542456 -7.8510428221149775 a28.9688211479619,28.9688211479619 0 0,0 0.4905454350529865,0.08964404276842143 l -1.499944986010133 7.826383297995817" fill="#ff4c07" stroke="none" /><path d="M 103.95276090670814 79.375362276772 l 1.221879031677342 -6.375496258118262 a27.491528395172644,27.491528395172644 0 0,0 0.46399624373035797,0.09307328144227947 l -1.3314416848748254 6.353519020598775" fill="#ff3705" stroke="none" /><path d="M 106.0581310904928 79.89281104454417 l 2.494179150527827 -8.278284295816032 a29.645861467620335,29.645861467620335 0 0,0 0.4873421436768683,0.1514195763004018 l -2.6363066669154134 8.234124584633111" fill="#ff5608" stroke="none" /><path d="M 106.40334571778207 80.00007090966166 l 1.83349318485122 -5.726652175410627 a27.013006103192573,27.013006103192573 0 0,0 0.44162042943316315,0.14559531225632807 l -1.9317964365268006 5.694243138895063" fill="#ff3004" stroke="none" /><path d="M 106.74666289553966 80.11325718540242 l 1.7202560535560194 -5.070697949787921 a26.35455493834731,26.35455493834731 0 0,0 0.42834685120766947,0.1494418055754564 l -1.8072849088269625 5.0403352910402575" fill="#ff2603" stroke="none" /><path d="M 107.76421540070413 80.48803036053334 l 2.1377864115604357 -5.372393913008738 a26.782105766758836,26.782105766758836 0 0,0 0.4268763241201929,0.17413357083480485 l -2.229946605269016 5.334799455990353" fill="#ff2d04" stroke="none" /><path d="M 108.09893153111575 80.62456947434976 l 3.1911322135414433 -7.634286110962931 a29.274397212386134,29.274397212386134 0 0,0 0.4632551273606586,0.19834166923728855 l -3.322071098692417 7.578224913762852" fill="#ff5107" stroke="none" /><path d="M 108.43124777332544 80.76684994638697 l 5.374090834252995 -12.259240648097691 a34.385433633721874,34.385433633721874 0 0,0 0.5400443274607273,0.24230214781732917 l -5.584317280180503 12.164918169763832" fill="#ff980e" stroke="none" /><path d="M 109.41281617654863 81.2277094730956 l 1.7925407868325827 -3.5749233598743717 a24.99915984944761,24.99915984944761 0 0,0 0.38301035717390636,0.19619278114745667 l -1.8538116315952444 3.5435380534144145" fill="#ff1202" stroke="none" /><line stroke="#e1ed5e" stroke-width="0.3" x1="143.23703022742887" x2="145.7803849466894" y1="26.81831364943548" y2="22.513508569990506" /><path d="M 143.74570117128098 25.957352633546492 a86.0,86.0 0 0,1 28.547481713284135,27.462654790039103" fill="none" id="id110" stroke="none" /><text fill="#e1ed5e" style="font-size:6.75px; font-family:Arial;" text-anchor="middle"><textPath startOffset="19.985693538727396" xlink:href="#id110">February</textPath></text><path d="M 111.60114157652 82.49532879139004 l 7.479500473284925 -11.285630446445177 a34.53914258376799,34.53914258376799 0 0,0 0.49275071320571406,0.3327074811482856 l -7.672655880897181 11.15521105299822" fill="#ff9a0e" stroke="none" /><path d="M 113.6212207817346 84.01681056812373 l 7.986339403408234 -9.371199365852739 a33.31263556761873,33.31263556761873 0 0,0 0.43323273128271644,0.37569515542214643 l -8.146465933337714 9.23233921701092" fill="#ff890c" stroke="none" /><path d="M 115.19652480421416 85.50635884689758 l 2.9361765760994416 -2.8003698348407267 a25.0574874119239,25.0574874119239 0 0,0 0.29500141512101713,0.3146869412722615 l -2.983945313190922 2.7494134766904104" fill="#ff1302" stroke="none" /><path d="M 115.68641384162765 86.03803664274999 l 7.4809365943909585 -6.658536722499186 a31.015014908334784,31.015014908334784 0 0,0 0.351515519020858,0.40184300384245486 l -7.594443976989664 6.528778162453783" fill="#ff6909" stroke="none" /><path d="M 115.9244219780498 86.31012108654704 l 9.181101945381235 -7.892793477690107 a33.10738707620065,33.10738707620065 0 0,0 0.36779057238339974,0.4353480305837043 l -9.31560313125175 7.733586497477296" fill="#ff860c" stroke="none" /><path d="M 116.60985879189232 87.15038557335679 l 15.701119754818974 -12.146601451810977 a40.85107272628618,40.85107272628618 0 0,0 0.42548154632825264,0.5598838405817265 l -15.90787724137134 11.874532835348216" fill="#ffed16" stroke="none" /><line stroke="#e1ed5e" stroke-width="0.3" x1="172.23445277983987" x2="176.4835382374775" y1="55.19839476539836" y2="52.563006222186495" /><path d="M 173.08426987136738 54.67131705675599 a86.0,86.0 0 0,1 12.851231095245387,41.99856678651699" fill="none" id="id111" stroke="none" /><text fill="#e1ed5e" style="font-size:6.75px; font-family:Arial;" text-anchor="middle"><textPath startOffset="22.20632615414155" xlink:href="#id111">March</textPath></text><path d="M 118.03404312379186 89.2402003453031 l 11.263617833967613 -6.72030506130231 a34.11608122979721,34.11608122979721 0 0,0 0.2965505034992352,0.5069009387382651 l -11.377628011937174 6.525424710210149" fill="#ff940d" stroke="none" /><path d="M 118.21658344932153 89.55222093294921 l 7.055955078539226 -4.046810422640393 a29.134075034517103,29.134075034517103 0 0,0 0.24575613192274293,0.43717273648444654 l -7.124568851754401 3.9247541762211524" fill="#ff4f07" stroke="none" /><path d="M 119.04729006885535 91.15688171328212 l 3.228926045080105 -1.4990990766920922 a24.559952450010496,24.559952450010496 0 0,0 0.17472380912009228,0.38498075287756733 l -3.254252171163544 1.4432963149724622" fill="#ff0c01" stroke="none" /><path d="M 119.196687751892 91.48605970444005 l 10.580339326843358 -4.692495835727234 a32.574242845191456,32.574242845191456 0 0,0 0.22291530079498095,0.5145192483901782 l -10.65954533748102 4.509677442750453" fill="#ff7f0b" stroke="none" /><path d="M 119.34039704204932 91.81776055985345 l 7.602099831679197 -3.216180150565614 a29.254437389168878,29.254437389168878 0 0,0 0.1922132343833751,0.4654595932763334 l -7.656334752948769 3.084845986835977" fill="#ff5007" stroke="none" /><path d="M 119.7369772167798 92.82701384747503 l 7.770324087156778 -2.8239596401024007 a29.267568231854884,29.267568231854884 0 0,0 0.16800548488279982,0.4749741296255789 l -7.817782652849387 2.6897878840502076" fill="#ff5107" stroke="none" /><path d="M 120.08093135843002 93.85539295169968 l 8.416319828758331 -2.5753276686954107 a29.801519872220865,29.801519872220865 0 0,0 0.14587716666536765,0.4918252865714791 l -8.459402892535401 2.4300729953774014" fill="#ff5808" stroke="none" /><path d="M 120.18372546131832 94.20196356495316 l 12.910720894572641 -3.7087717177343853 a34.432859028212164,34.432859028212164 0 0,0 0.1587407752930657,0.5710750281188091 l -12.972648440432069 3.4859853861966243" fill="#ff990e" stroke="none" /><path d="M 120.28053869075195 94.5502522615342 l 9.134887589358216 -2.454709598219178 a30.458951870149257,30.458951870149257 0 0,0 0.13170402653311697,0.5075093396857501 l -9.175787947761636 2.297103832984577" fill="#ff6109" stroke="none" /><path d="M 120.37134235888165 94.90015583598534 l 13.090754327049003 -3.277192336235196 a34.49473373060139,34.49473373060139 0 0,0 0.13923914209960653,0.577236136329036 l -13.145226269409429 3.051370968246754" fill="#ff990e" stroke="none" /><path d="M 120.45610955862082 95.25157060432595 l 9.74354678233454 -2.261746977194133 a31.0026098238604,31.0026098238604 0 0,0 0.11619425765350402,0.5208760736563189 l -9.781035426990082 2.0936927339878504" fill="#ff6909" stroke="none" /><path d="M 120.53481517161879 95.60439243477599 l 2.714895993790594 -0.5811407246360702 a23.776397809920393,23.776397809920393 0 0,0 0.08222184521721641,0.40094291777313107 l -2.7244971349228075 0.5343221506995274" fill="#ff0000" stroke="none" /><path d="M 120.6074358757038 95.95851677861258 l 24.860447931482717 -4.875574224628362 a46.33403038156037,46.33403038156037 0 0,0 0.14675592805562257,0.7839760359087645 l -24.940689583448197 4.446920111257035" fill="#ceff1d" stroke="none" /><path d="M 120.73433829027371 96.67025291283417 l 10.426939972586055 -1.6744721975553845 a31.560536649825085,31.560536649825085 0 0,0 0.08152252919742825,0.5371316100966528 l -10.454218395222783 1.4947414750666494" fill="#ff710a" stroke="none" /><path d="M 120.78858239683441 97.02765380044208 l 13.362485976592477 -1.9105648307803136 a34.4983809935579,34.4983809935579 0 0,0 0.07899143734273162,0.5885779589741332 l -13.393393412993046 1.680268529741516" fill="#ff990e" stroke="none" /><path d="M 120.87857604477298 97.74499172005257 l 10.17337208971834 -1.0987836645614677 a31.23253757468631,31.23253757468631 0 0,0 0.05312933401931379,0.535005143038468 l -10.190778549419882 0.9235029908185648" fill="#ff6c0a" stroke="none" /><path d="M 120.94382443527127 98.46500227214037 l 14.80627101397589 -1.0851691597572624 a35.84598442153941,35.84598442153941 0 0,0 0.03980510340834417,0.6157673315712976 l -14.82275670838865 0.8301427639329296" fill="#ffac0f" stroke="none" /><path d="M 120.96714384426684 98.82574320788733 l 13.513896722425127 -0.756840565986574 a34.53507341194334,34.53507341194334 0 0,0 0.028131928355698207,0.5938205448100992 l -13.524922259014321 0.524108914553475" fill="#ff9a0e" stroke="none" /><path d="M 120.98425023603335 99.18683210126433 l 13.715406605222283 -0.5314904389732509 a34.72570072649462,34.72570072649462 0 0,0 0.01800495427390008,0.5974967773365669 l -13.72252325395183 0.2953235142116849" fill="#ff9d0e" stroke="none" /><line stroke="#e1ed5e" stroke-width="0.3" x1="184.98032266829074" x2="189.97916517819016" y1="98.17113171792111" y2="98.06355123074" /><path d="M 185.9800911702706 98.14961562048488 a86.0,86.0 0 0,1 -9.607161424134198,41.387399972396054" fill="none" id="id112" stroke="none" /><text fill="#e1ed5e" style="font-size:6.75px; font-family:Arial;" text-anchor="middle"><textPath startOffset="21.466115282336823" xlink:href="#id112">April</textPath></text><path d="M 120.99824983174949 100.27111621757518 l 16.42793100936149 0.2121071305242729 a37.429300249345985,37.429300249345985 0 0,0 -0.013862988146830853,0.6441585856172968 l -16.42184595852965 -0.4948555319316846" fill="#ffc111" stroke="none" /><path d="M 120.9764740272857 100.99374915477107 l 4.0467636599561905 0.19171324796573014 a25.05130227075043,25.05130227075043 0 0,0 -0.024113249233875696,0.4305582634354507 l -4.042864059834785 -0.2613432277366042" fill="#ff1302" stroke="none" /><path d="M 120.95626037817324 101.35467743843564 l 18.18722333063537 1.1756783256741408 a39.225183455972875,39.225183455972875 0 0,0 -0.04935544447283293,0.6734158267486037 l -18.164291327498198 -1.4885672889195147" fill="#ffd814" stroke="none" /><path d="M 120.89721153311464 102.0752229133903 l 15.85595886223643 1.5745952081953547 a36.93395059332762,36.93395059332762 0 0,0 -0.06827099802413512,0.632104651931778 l -15.826505562711242 -1.8472961820119242" fill="#ffba11" stroke="none" /><path d="M 120.8583938346157 102.4346265915055 l 13.439613201212627 1.5686941160790286 a34.53085378784464,34.53085378784464 0 0,0 -0.07399220499384603,0.5897906753808444 l -13.410619486971934 -1.799802545747268" fill="#ff9a0e" stroke="none" /><path d="M 120.81339534386255 102.79330883721812 l 11.586698983073093 1.555019165729154 a32.690580735366915,32.690580735366915 0 0,0 -0.07964974219730755,0.5570701114162405 l -11.558215189859183 -1.754234749125804" fill="#ff810b" stroke="none" /><path d="M 120.76222939487914 103.15116336523771 l 5.534185563025798 0.8399446163009606 a26.59756347033744,26.59756347033744 0 0,0 -0.07259646078019158,0.4520582305769863 l -5.518907347884318 -0.9350820765711519" fill="#ff2a04" stroke="none" /><path d="M 120.64145759157962 103.86396538481128 l 11.910330974350888 2.2295473273801685 a33.11721359073984,33.11721359073984 0 0,0 -0.1097127032936675,0.5594227104320881 l -11.870188338081556 -2.4342337648802017" fill="#ff870c" stroke="none" /><path d="M 120.02730092923936 106.31721596034902 l 11.32177649506124 3.5712304631966036 a32.871659952398595,32.871659952398595 0 0,0 -0.17485805422103948,0.5381577548185948 l -11.258626189823953 -3.7655871179929936" fill="#ff830c" stroke="none" /><path d="M 119.26925614724726 108.34839909993367 l 57.80776844174181 25.045197299801014 a84.0,84.0 0 0,0 -0.5862356610749084,1.3218066540292492 l -57.368091695935625 -26.036552290322952" fill="#4dd2ff" stroke="none" /><path d="M 119.12269723197855 108.67885076344098 l 13.16408528551281 5.974530174494333 a35.45642252461508,35.45642252461508 0 0,0 -0.257017500204684,0.5535928300906736 l -13.059293168468296 -6.200243071863838" fill="#ffa60f" stroke="none" /><path d="M 118.97047184881838 109.00673069616215 l 33.31713656709692 15.81818728698567 a57.881521634508815,57.881521634508815 0 0,0 -0.4350671281996274,0.8963671467179576 l -33.039916182282575 -16.389343389668905" fill="#4dff2c" stroke="none" /><path d="M 118.64920377521936 109.65438752849418 l 7.374818290222134 3.8178227115861896 a29.304439479633665,29.304439479633665 0 0,0 -0.2357576927599775,0.4459647070956197 l -7.308008089237264 -3.9442024337679435" fill="#ff5107" stroke="none" /><line stroke="#e1ed5e" stroke-width="0.3" x1="174.80103733775053" x2="179.2010983576182" y1="140.37084112569926" y2="142.7455964860345" /><path d="M 175.68104954172406 140.8457921977663 a86.0,86.0 0 0,1 -30.038265399797805,32.042727171017184" fill="none" id="id113" stroke="none" /><text fill="#e1ed5e" style="font-size:6.75px; font-family:Arial;" text-anchor="middle"><textPath startOffset="22.206326154141568" xlink:href="#id113">May</textPath></text><path d="M 117.94076556474637 110.91462005526583 l 11.294516781347165 6.871242976301104 a34.22044210166589,34.22044210166589 0 0,0 -0.31048591745535825,0.5006021598063815 l -11.174566224223843 -7.064641467472758" fill="#ff960d" stroke="none" /><path d="M 117.75023020441432 111.22182372390056 l 7.242461634649517 4.578736549058246 a29.568435033018105,29.568435033018105 0 0,0 -0.27568360842936146,0.4278670824123811 l -7.162573162843105 -4.70272523139208" fill="#ff5507" stroke="none" /><path d="M 117.55443506779139 111.5257021239791 l 16.878564625187728 11.081946379874045 a41.1914704608912,41.1914704608912 0 0,0 -0.39425512600976886,0.5893579201466536 l -16.685306393767238 -11.370841214226505" fill="#fff116" stroke="none" /><path d="M 117.14729908036423 112.12312394758627 l 20.318328736934355 14.365038863043317 a45.8835050625686,45.8835050625686 0 0,0 -0.4615011174214676,0.6409846880700247 l -20.068047827137285 -14.712657156564473" fill="#d3ff1c" stroke="none" /><path d="M 116.71984013943494 112.70617746262583 l 6.738889632260842 5.121192957258105 a29.46399732876037,29.46399732876037 0 0,0 -0.31034454031556363,0.40116215322290144 l -6.649738274727211 -5.236433104594259" fill="#ff5307" stroke="none" /><path d="M 116.498646956653 112.99209946851258 l 12.004647663663215 9.45323437373555 a36.27989547259634,36.27989547259634 0 0,0 -0.3905825961369634,0.48731184350047035 l -11.840147155471398 -9.65847405081427" fill="#ffb110" stroke="none" /><path d="M 116.27256486870786 113.27417163493432 l 11.942810784358114 9.742220813632716 a36.41238449470292,36.41238449470292 0 0,0 -0.4003697730114868,0.48227118327841456 l -11.773345011453085 -9.946353254024903" fill="#ffb310" stroke="none" /><path d="M 115.80600337817218 113.82643327865902 l 8.197207763040362 7.170575856228237 a31.89088486856658,31.89088486856658 0 0,0 -0.36498533119255683,0.41006488877776803 l -8.072563582199468 -7.310614914746871" fill="#ff760a" stroke="none" /><path d="M 115.56566222782051 114.09645910891815 l 18.410712364942125 16.672972226945145 a45.838323869881336,45.838323869881336 0 0,0 -0.5346791468277557,0.5802886134675227 l -18.120986810118644 -16.987412095214005" fill="#d4ff1c" stroke="none" /><path d="M 115.07121518719521 114.62390073753431 l 7.477509106153906 7.255576247448836 a31.419046459017174,31.419046459017174 0 0,0 -0.3799600666706233,0.3848975415069193 l -7.351508414427747 -7.38321428293642" fill="#ff6f0a" stroke="none" /><path d="M 114.81725581225074 114.88116024355365 l 17.82422055131078 17.90109353590267 a46.26167033358851,46.26167033358851 0 0,0 -0.5691287968503762,0.5570123134513218 l -17.51344180208461 -18.205255952276563" fill="#ceff1d" stroke="none" /><path d="M 114.55890576462653 115.13401014063108 l 12.794731916884489 13.300148081681959 a39.45532724769764,39.45532724769764 0 0,0 -0.49350002906448254,0.4666350801991889 l -12.563896053429199 -13.51841779862707" fill="#ffdb14" stroke="none" /><path d="M 113.20401910651253 116.32954008644616 l 7.298689254448222 9.026360670762863 a32.60801670362739,32.60801670362739 0 0,0 -0.43949784787186635,0.34916367086667455 l -7.1422339138590045 -9.150658255634664" fill="#ff800b" stroke="none" /><path d="M 112.92097659922987 116.55440617244103 l 5.940614002739157 7.6111380869536 a30.6550669447817,30.6550669447817 0 0,0 -0.418764668217457,0.32109089054762724 l -5.808720606028206 -7.712268319328599" fill="#ff6409" stroke="none" /><path d="M 112.34349029814194 116.9893568818739 l 8.151709534913044 11.219865624786788 a34.86851661064962,34.86851661064962 0 0,0 -0.4886119789029247,0.34861167349457345 l -7.957370228161234 -11.358521560125581" fill="#ff9e0e" stroke="none" /><path d="M 111.45004920935366 117.60387380957326 l 4.969031255398689 7.639635216974028 a30.1134679384721,30.1134679384721 0 0,0 -0.4369581754442264,0.2788873815290317 l -4.836791277907532 -7.724037027326869" fill="#ff5d08" stroke="none" /><line stroke="#e1ed5e" stroke-width="0.3" x1="143.8653032363475" x2="146.44561519142675" y1="172.8068346515853" y2="177.08958963109032" /><path d="M 144.38136562736335 173.6633856474863 a86.0,86.0 0 0,1 -40.68145358897372,12.25698825130547" fill="none" id="id114" stroke="none" /><text fill="#e1ed5e" style="font-size:6.75px; font-family:Arial;" text-anchor="middle"><textPath startOffset="21.466115282336833" xlink:href="#id114">June</textPath></text><path d="M 110.5260780823613 118.17145234162733 l 13.506324165178375 23.31633149191419 a47.94572520263114,47.94572520263114 0 0,0 -0.7177046589668781,0.4075314363023978 l -13.1029707392903 -23.545366094011218" fill="#bbff1f" stroke="none" /><path d="M 109.89434966115114 118.52300852407294 l 8.824580180770633 16.52031507958273 a39.72949614099478,39.72949614099478 0 0,0 -0.6059866215237674,0.31702355968476803 l -8.53890265672037 -16.669768058212217" fill="#ffdf14" stroke="none" /><path d="M 109.57404056367764 118.69057910512821 l 4.5442238940101 8.871298966983291 a30.967442809491867,30.967442809491867 0 0,0 -0.4765241968068997,0.23893912475903215 l -4.39084578952044 -8.948205932651625" fill="#ff6909" stroke="none" /><path d="M 108.59647513512805 119.15986991738527 l 4.483177399133177 9.992129847843017 a31.95178243430054,31.95178243430054 0 0,0 -0.5037416462776407,0.22082553412574332 l -4.310515078197782 -10.067819935263216" fill="#ff760a" stroke="none" /><path d="M 107.2578585660854 119.70592522655815 l 7.222150974277989 19.608974985964398 a41.89668310271853,41.89668310271853 0 0,0 -0.6788867492547536,0.2434246346491543 l -6.883544664393501 -19.730387161653514" fill="#fffa17" stroke="none" /><path d="M 106.2309692047433 120.05430185196036 l 9.64726460755066 31.04960883746256 a53.513811271020394,53.513811271020394 0 0,0 -0.8820223473324664,0.26574609791162973 l -9.111367285777948 -31.211070304479918" fill="#7bff26" stroke="none" /><path d="M 105.88484417918355 120.15858648285463 l 6.004410270125644 20.56816119907208 a42.42667024535088,42.42667024535088 0 0,0 -0.7028055342600614,0.19861986411662835 l -5.649473567760976 -20.668469856527228" fill="#fdff18" stroke="none" /><path d="M 105.53697534728816 120.25689768951611 l 3.5608460544283904 13.027273861351205 a34.50516526674082,34.50516526674082 0 0,0 -0.5742802396711754,0.15167263084903262 l -3.3360753719457175 -13.086637841503823" fill="#ff9a0e" stroke="none" /><path d="M 104.83641907484287 120.43548508189849 l 0.9740982104230786 4.115890111952631 a25.229588483200097,25.229588483200097 0 0,0 -0.4234724561637113,0.09638095231491173 l -0.9031056048665053 -4.132047797845228" fill="#ff1602" stroke="none" /><path d="M 103.7750983002368 120.6578951692458 l 2.0040230344548635 10.966309873288733 a32.147917319374756,32.147917319374756 0 0,0 -0.5452149437298485,0.0947926065716595 l -1.8149591192529653 -10.9991810583814" fill="#ff790b" stroke="none" /><path d="M 103.41894727170886 120.7198165907248 l 1.8460726869695623 11.187738343808256 a32.33902436786748,32.33902436786748 0 0,0 -0.5500161766710718,0.08590121514204005 l -1.6532206466899733 -11.217857866297402" fill="#ff7c0b" stroke="none" /><path d="M 103.06178313531738 120.77559828337769 l 2.414233205703435 16.38167598009404 a37.55861799451606,37.55861799451606 0 0,0 -0.6404127265891442,0.08875536845120073 l -2.1318918879274604 -16.420805914037846" fill="#ffc212" stroke="none" /><path d="M 102.34483914955558 120.86867818915974 l 1.5124480104090967 13.460535582171758 a34.54523964878815,34.54523964878815 0 0,0 -0.591492481911997,0.06131061421702424 l -1.280522931891497 -13.48457556484454" fill="#ff9a0e" stroke="none" /><path d="M 101.98527174616119 120.90594882070398 l 1.2791932333990275 13.470573144931855 a34.53117423512583,34.53117423512583 0 0,0 -0.5922189817065449,0.05109914566915658 l -1.0471299339509408 -13.490596542879675" fill="#ff9a0e" stroke="none" /><path d="M 101.62511606390274 120.93702456842531 l 3.517829246751835 45.32161056231896 a66.45793117346855,66.45793117346855 0 0,0 -1.1412954677496934,0.07871041753842582 l -2.7371710182232114 -45.37544932437367" fill="#37ff74" stroke="none" /><path d="M 101.26447882468166 120.96189622390904 l 0.6055151325874365 10.037926395880776 a31.0561729750891,31.0561729750891 0 0,0 -0.53388804730581,0.027595913759125998 l -0.43263901686814693 -10.046862116402103" fill="#ff6a09" stroke="none" /><line stroke="#e1ed5e" stroke-width="0.3" x1="102.19456741930631" x2="102.32365962044197" y1="184.97166512339345" y2="189.96999836594603" /><path d="M 102.22038585953345 185.97133177190398 a86.0,86.0 0 0,1 -42.740103519485714,-10.115201625700543" fill="none" id="id115" stroke="none" /><text fill="#e1ed5e" style="font-size:6.75px; font-family:Arial;" text-anchor="middle"><textPath startOffset="22.20632615414155" xlink:href="#id115">July</textPath></text><path d="M 100.18074693466247 120.99922214144158 l 0.14552072343049086 16.90663248705589 a37.9072587468614,37.9072587468614 0 0,0 -0.652535316185881,0.0 l 0.1455207234304792 -16.90663248705589" fill="#ffc712" stroke="none" /><path d="M 99.81925306533755 120.99922214144158 l -0.1163091879389601 13.512829300160362 a34.51332984584005,34.51332984584005 0 0,0 -0.5940242210627175,-0.010226665673218891 l 0.34889309889434544 -13.508825157207983" fill="#ff9a0e" stroke="none" /><path d="M 99.45781275523022 120.99299961872073 l -0.2765172437304946 10.706497521292352 a31.71006773832545,31.71006773832545 0 0,0 -0.5455334343274031,-0.018789274513819235 l 0.46077102973254075 -10.70015144835244" fill="#ff730a" stroke="none" /><path d="M 99.09653310690486 120.98055641714683 l -0.23507552545700308 5.458988438685087 a26.46404751776248,26.46404751776248 0 0,0 -0.45494461485641174,-0.02351544002551044 l 0.3290082087269038 -5.454133191897374" fill="#ff2803" stroke="none" /><path d="M 98.73552117531835 120.96189622390904 l -1.378520431788532 22.85242083113933 a43.893961134420344,43.893961134420344 0 0,0 -0.7537998553330617,-0.05198645138813675 l 1.7716830479005237 -22.82530603523491" fill="#ebff1a" stroke="none" /><path d="M 98.01472825383883 120.90594882070398 l -1.1601477620274194 12.216962128382804 a33.27192350351309,33.27192350351309 0 0,0 -0.5696904352426443,-0.05905074293655003 l 1.370270793875657 -12.195182016990492" fill="#ff890c" stroke="none" /><path d="M 97.65516085044442 120.86867818915974 l -1.6630473217753952 14.800844389711106 a35.893982712589235,35.893982712589235 0 0,0 -0.6133983844293229,-0.07427400193890682 l 1.9175731292561076 -14.770024859046849" fill="#ffac0f" stroke="none" /><path d="M 96.93821686468263 120.77559828337769 l -1.062629235356693 7.210425148434017 a28.288306505149496,28.288306505149496 0 0,0 -0.48112231251853743,-0.07514141043529132 l 1.1865874114837476 -7.191065430651619" fill="#ff4306" stroke="none" /><path d="M 96.58105272829116 120.7198165907248 l -3.093557590887805 18.747860321344643 a40.00137798152514,40.00137798152514 0 0,0 -0.6784062814597844,-0.11794962789212196 l 3.4158128438196393 -18.691832114931515" fill="#ffe215" stroke="none" /><path d="M 96.22490169976321 120.6578951692458 l -2.9048430894043826 15.895730190723727 a37.158971244183405,37.158971244183405 0 0,0 -0.6282208667087725,-0.12040002428299752 l 3.1780315706848503 -15.843372968092261" fill="#ffbd11" stroke="none" /><path d="M 95.51606077576429 120.51570834832081 l -4.094310119979883 18.733008657895684 a40.17521808833903,40.17521808833903 0 0,0 -0.6743311842803288,-0.1534755821083505 l 4.416161453653074 -18.659756342209647" fill="#ffe415" stroke="none" /><path d="M 95.16358092515715 120.4354850818985 l -3.3192742060010523 14.02504155859757 a35.41247279182212,35.41247279182212 0 0,0 -0.5919729644137897,-0.1454925520222411 l 3.560200455158052 -13.9658277482613" fill="#ffa60f" stroke="none" /><path d="M 94.11515582081647 120.15858648285463 l -5.991451212727393 20.523769831799747 a42.38042599536281,42.38042599536281 0 0,0 -0.6985202871846773,-0.2104584324794535 l 6.343846474352316 -20.41759603021457" fill="#feff18" stroke="none" /><path d="M 93.76903079525671 120.05430185196036 l -6.302762343453562 20.285367233169342 a42.24196170184375,42.24196170184375 0 0,0 -0.6925240835919417,-0.22172434237637778 l 6.6510077721364445 -20.173870044133256" fill="#fffe18" stroke="none" /><path d="M 93.08242187328487 119.8279376855182 l -8.35321276271059 23.942914571974676 a46.35822000180589,46.35822000180589 0 0,0 -0.7511807366970621,-0.2693466864490928 l 8.76411306003738 -23.795580344485625" fill="#cdff1d" stroke="none" /><path d="M 92.40401165467489 119.57807347666478 l -4.33897350645573 11.183369202372864 a32.995600768878006,32.995600768878006 0 0,0 -0.5277393753144374,-0.2099983887370553 l 4.530833957812026 -11.107023969229743" fill="#ff850c" stroke="none" /><path d="M 91.7346041902142 119.30500536409082 l -15.167020655206256 35.42473002434728 a59.53504914818904,59.53504914818904 0 0,0 -0.9386106622000249,-0.4114593310837695 l 15.774551992064024 -35.15840613996905" fill="#3cff2e" stroke="none" /><path d="M 91.40352486487194 119.15986991738527 l -10.607245859652126 23.641486499760685 a46.9120348225583,46.9120348225583 0 0,0 -0.7339097534706519,-0.33690197181809234 l 11.012623608890197 -23.45539745760852" fill="#c7ff1e" stroke="none" /><path d="M 90.7491055286396 118.85261126421891 l -9.959921862224858 20.297554541545637 a43.60952816554659,43.60952816554659 0 0,0 -0.6710594578330941,-0.3364831431233389 l 10.307835227740712 -20.123103557512998" fill="#efff19" stroke="none" /><path d="M 90.10565033884886 118.52300852407294 l -6.526178120603297 12.217523849211641 a34.85131365134356,34.85131365134356 0 0,0 -0.5267148537784515,-0.2872069345627377 l 6.735515786250389 -12.103376262889139" fill="#ff9e0e" stroke="none" /><line stroke="#e1ed5e" stroke-width="0.3" x1="58.666819895761336" x2="56.23545636021788" y1="174.27360380694188" y2="178.64263932499728" /><path d="M 58.180547188652646 175.14741091055294 a86.0,86.0 0 0,1 -31.652253787137756,-30.449443065178592" fill="none" id="id116" stroke="none" /><text fill="#e1ed5e" style="font-size:6.75px; font-family:Arial;" text-anchor="middle"><textPath startOffset="22.20632615414155" xlink:href="#id116">August</textPath></text><path d="M 89.1626897886671 117.98757091392108 l -8.777106493835056 14.568082153060136 a38.00783983998058,38.00783983998058 0 0,0 -0.5574859636359757,-0.3424534118411513 l 9.026571657403341 -14.414840274390606" fill="#ffc812" stroke="none" /><path d="M 88.8546689885994 117.79835938074946 l -3.8499273703645027 6.148080380693885 a28.2540218585661,28.2540218585661 0 0,0 -0.40997688693662365,-0.2616666466279976 l 3.95518605934805 -6.080899305242083" fill="#ff4206" stroke="none" /><path d="M 87.95078237400918 117.19931262002967 l -7.788338448999965 11.117241959843204 a34.573919278891765,34.573919278891765 0 0,0 -0.4844837910922078,-0.3456663211018142 l 7.97854956794106 -10.981531376897172" fill="#ff9a0e" stroke="none" /><path d="M 87.36589467227662 116.77436683061367 l -5.317181493791751 7.05964930386451 a29.838046578937913,29.838046578937913 0 0,0 -0.4076037314938327,-0.3125331601947081 l 5.437913953779071 -6.967076801842435" fill="#ff5908" stroke="none" /><path d="M 87.07902340077011 116.55440617244103 l -12.785674686820709 16.381056828703112 a41.78009865285554,41.78009865285554 0 0,0 -0.5631211370104935,-0.44737748840700664 l 13.06575331654856 -16.158545426290974" fill="#fff917" stroke="none" /><path d="M 86.79598089348748 116.32954008644616 l -18.73179966795076 23.16580058705103 a50.79151952551689,50.79151952551689 0 0,0 -0.6751157293417838,-0.5555742836034305 l 19.127785525837233 -22.83993118459042" fill="#9aff23" stroke="none" /><path d="M 86.24171649860922 115.8653595955263 l -20.204438885467237 23.29874132273614 a51.83910987529234,51.83910987529234 0 0,0 -0.6691136738196959,-0.5904150206330256 l 20.60249491219352 -22.94750316033083" fill="#8eff24" stroke="none" /><path d="M 85.97065885151581 115.62618273729859 l -9.480276875842872 10.559336842280208 a35.19067455025931,35.19067455025931 0 0,0 -0.4472574710490239,-0.40855909543099583 l 9.660633896358751 -10.394584980262636" fill="#ffa30f" stroke="none" /><path d="M 85.18274418774928 114.88116024355367 l -13.305673708553416 13.36305893036652 a39.85768535146713,39.85768535146713 0 0,0 -0.48201108850437246,-0.48827468783773964 l 13.533725422113323 -13.132043748548115" fill="#ffe015" stroke="none" /><path d="M 84.9287848128048 114.62390073753433 l -13.603432847859052 13.199682254276619 a39.95481460896085,39.95481460896085 0 0,0 -0.4746887850382882,-0.4977092933318913 l 13.828628184276297 -12.963565844362227" fill="#ffe115" stroke="none" /><path d="M 84.67929136418377 114.36230785411682 l -9.813978479989492 9.200056182373654 a34.45195923888147,34.45195923888147 0 0,0 -0.40186338891184514,-0.4361433396805656 l 9.970888276897067 -9.029761587891745" fill="#ff990e" stroke="none" /><path d="M 84.43433777217949 114.09645910891817 l -3.081858229351024 2.7909694989965463 a25.157807221378555,25.157807221378555 0 0,0 -0.28792649180530777,-0.32348846583104895 l 3.12944357080467 -2.737506863424633" fill="#ff1502" stroke="none" /><path d="M 83.72743513129214 113.27417163493432 l -20.789494794443854 16.958809157104607 a47.829168862178776,47.829168862178776 0 0,0 -0.5149199219543814,-0.6424417751955245 l 21.078332628453097 -16.598439548330823" fill="#bcff1f" stroke="none" /><path d="M 83.06392112726016 112.41649034213515 l -15.397634705376777 11.28859779454409 a40.09239625314772,40.09239625314772 0 0,0 -0.4032535362261561,-0.5600838922671544 l 15.58966803397854 -11.021880296825797" fill="#ffe315" stroke="none" /><path d="M 82.6465618267979 111.8261652097733 l -9.713558675219286 6.619676661271848 a32.75471570207953,32.75471570207953 0 0,0 -0.31350457806058923,-0.46864680734085085 l 9.826066358690605 -6.451492939725177" fill="#ff820b" stroke="none" /><path d="M 82.44556493220864 111.52570212397912 l -16.19849337453457 10.635432514412699 a40.37791558381518,40.37791558381518 0 0,0 -0.376466642775391,-0.5842845898150751 l 16.379164880687007 -10.355026324676174" fill="#ffe715" stroke="none" /><path d="M 82.24976979558568 111.22182372390057 l -15.992403302931194 10.110512862102937 a39.92034444026729,39.92034444026729 0 0,0 -0.3622017720240782,-0.5839845840577329 l 16.164069714623228 -9.83373194667994" fill="#ffe115" stroke="none" /><path d="M 82.05923443525364 110.91462005526583 l -15.56522717193304 9.469414225521138 a39.21938809862682,39.21938809862682 0 0,0 -0.345913367584707,-0.5797707009716992 l 15.725921415215979 -9.200081430663326" fill="#ffd814" stroke="none" /><line stroke="#e1ed5e" stroke-width="0.3" x1="26.63291911575756" x2="22.317208475507996" y1="142.92168965132927" y2="145.44649492493687" /><path d="M 25.769776987707644 143.4266507060508 a86.0,86.0 0 0,1 -11.730757126820373,-40.83630448921669" fill="none" id="id117" stroke="none" /><text fill="#e1ed5e" style="font-size:6.75px; font-family:Arial;" text-anchor="middle"><textPath startOffset="21.46611528233685" xlink:href="#id117">September</textPath></text><path d="M 81.87401531095188 110.60418214915194 l -8.118963400243409 4.7498090854340385 a30.406287952352073,30.406287952352073 0 0,0 -0.260405247268883,-0.4540384982369175 l 8.19952064366467 -4.609350741338814" fill="#ff6108" stroke="none" /><path d="M 81.69416730710424 110.29060199501025 l -12.413552226313994 6.978263564860723 a35.24052110198527,35.24052110198527 0 0,0 -0.2927037249241843,-0.531342282281533 l 12.531832360689696 -6.7635507641813675" fill="#ffa30f" stroke="none" /><path d="M 81.35079622478065 109.6543875284942 l -12.01173445662115 6.2182783099662515 a34.52585486379979,34.52585486379979 0 0,0 -0.2686791013623074,-0.5301293565807911 l 12.116992227769725 -6.010594741682776" fill="#ff9a0e" stroke="none" /><path d="M 81.02952815118164 109.00673069616217 l -20.102910806286033 9.544385890035967 a43.25359128103618,43.25359128103618 0 0,0 -0.31353783360996496,-0.6753325999607264 l 20.264223256735825 -9.196933222796412" fill="#f3ff19" stroke="none" /><path d="M 80.87730276802145 108.67885076344099 l -12.254088592085992 5.561527479232875 a34.45709014330195,34.45709014330195 0 0,0 -0.24047589308184958,-0.5422096551178696 l 12.348005569899122 -5.349769487622309" fill="#ff990e" stroke="none" /><path d="M 80.73074385275274 108.34839909993369 l -16.28754467003142 7.056573550341484 a38.75047440632638,38.75047440632638 0 0,0 -0.2599031570697003,-0.6143342891613135 l 16.406598808293428 -6.775164735514011" fill="#ffd213" stroke="none" /><path d="M 80.32549172779594 107.34259656027581 l -27.744132294590543 10.354208986351265 a50.61328283917167,50.61328283917167 0 0,0 -0.29759583340563406,-0.8188559212076696 l 27.918252389001402 -9.87510526813748" fill="#9cff22" stroke="none" /><path d="M 80.20201598880116 107.00284435728193 l -12.77126225151947 4.517387312911827 a34.54665743391863,34.54665743391863 0 0,0 -0.19347636545200522,-0.5623328822826883 l 12.847129447914705 -4.2968817275398425" fill="#ff9a0e" stroke="none" /><path d="M 80.0844068197444 106.66101706037122 l -22.89145850623348 7.656332114574968 a45.137901607042835,45.137901607042835 0 0,0 -0.24010730392251323,-0.7389742964378573 l 23.019858061172243 -7.261158918159308" fill="#dcff1b" stroke="none" /><path d="M 79.97269907076064 106.31721596034903 l -10.631222700441166 3.3534089270711616 a32.147566888722224,32.147566888722224 0 0,0 -0.16192151932834317,-0.5291688938814361 l 10.687370992275639 -3.1699130606376777" fill="#ff790b" stroke="none" /><path d="M 79.86692584326677 105.97154293290107 l -16.11404886328749 4.7794854308330095 a37.80791634177068,37.80791634177068 0 0,0 -0.17969087785251933,-0.6255275190331355 l 16.193932378026112 -4.501400436295278" fill="#ffc612" stroke="none" /><path d="M 79.76711848015287 105.62410040840567 l -14.092666753936136 3.9173151272887075 a35.62698239706269,35.62698239706269 0 0,0 -0.1591540834669607,-0.5922715513528599 l 14.15800891374487 -3.6741526427603084" fill="#ffa90f" stroke="none" /><path d="M 79.67330655649465 105.27499134158121 l -20.826061571917826 5.404582637920612 a42.515909325134864,42.515909325134864 0 0,0 -0.17773408577162167,-0.7099593230014104 l 20.91600697198451 -5.045295475521809" fill="#fcff18" stroke="none" /><path d="M 79.50377843672027 104.57218783832718 l -27.43190149116255 6.1193623416321365 a49.106152616269476,49.106152616269476 0 0,0 -0.1769363924883023,-0.8265879205472406 l 27.533171922375292 -5.6462606016687324" fill="#adff20" stroke="none" /><path d="M 79.35854240842038 103.8639653848113 l -29.96102788100133 5.608536805694441 a51.48145135630796,51.48145135630796 0 0,0 -0.15555624962379708,-0.8724420582261985 l 30.053130572964317 -5.091975996735029" fill="#92ff23" stroke="none" /><path d="M 79.29508885075956 103.50808413554451 l -15.910248323323817 2.695712593660344 a37.137003070503745,37.137003070503745 0 0,0 -0.1013632316324111,-0.6311889401337946 l 15.954293309317519 -2.4214444238333357" fill="#ffbd11" stroke="none" /><path d="M 79.23777060512086 103.15116336523772 l -10.7692518631168 1.6344907522523444 a31.892582141551337,31.892582141551337 0 0,0 -0.07770543956207339,-0.5434716633138647 l 10.795791353695472 -1.4488736169580791" fill="#ff760a" stroke="none" /><path d="M 79.1416061653843 102.43462659150553 l -14.241561323084236 1.662298841255742 a35.338246278984364,35.338246278984364 0 0,0 -0.0653213995018662,-0.6047950328956377 l 14.268065024087154 -1.4169074864753222" fill="#ffa50f" stroke="none" /><path d="M 79.07016306316243 101.71520430193888 l -13.433983169934319 1.1009175940922278 a34.47901789297204,34.47901789297204 0 0,0 -0.04338353840982279,-0.5919339132202514 l 13.450943267008476 -0.8695105443752159" fill="#ff990e" stroke="none" /><path d="M 79.04373962182676 101.35467743843564 l -20.641823469640908 1.3343512648668183 a41.68490680302597,41.68490680302597 0 0,0 -0.0401240037810625,-0.7164410412920668 l 20.661733824309504 -0.9788385072393139" fill="#fff717" stroke="none" /><path d="M 79.0095281055655 100.63252640178507 l -24.2371823252854 0.7303626999298876 a45.248184194751076,45.248184194751076 0 0,0 -0.016758930489714774,-0.7787216469041508 l 24.246163318460123 -0.3130512372356078" fill="#dbff1b" stroke="none" /><line stroke="#e1ed5e" stroke-width="0.3" x1="15.007084014347285" x2="10.007500721073583" y1="101.09737516637583" y2="101.16192664675087" /><path d="M 14.007167355692545 101.11028546245083 a86.0,86.0 0 0,1 10.666146001902534,-42.60595125391555" fill="none" id="id118" stroke="none" /><text fill="#e1ed5e" style="font-size:6.75px; font-family:Arial;" text-anchor="middle"><textPath startOffset="22.20632615414155" xlink:href="#id118">October</textPath></text><path d="M 79.00175016825051 100.2711162175752 l -26.799112239605595 0.346013310775524 a47.80134589982772,47.80134589982772 0 0,0 -0.003541175399131715,-0.8228444510426346 l 26.80109771229423 0.11534061847078592" fill="#bcff1f" stroke="none" /><path d="M 79.00486145842228 99.54816195383935 l -14.168481803817707 -0.3049210236275304 a35.17176253878689,35.17176253878689 0 0,0 0.018236233193133743,-0.6051717987115701 l 14.161133876168929 0.5487629697640949" fill="#ffa30f" stroke="none" /><path d="M 79.03285615573316 98.82574320788736 l -18.177232205562685 -1.0180088684337942 a39.205716484422005,39.205716484422005 0 0,0 0.04353591131739319,-0.673481278629596 l 18.15701570324088 1.3307492113164021" fill="#ffd814" stroke="none" /><path d="M 79.05617556472873 98.46500227214037 l -18.95875987316449 -1.3895099922311276 a40.009611094044566,40.009611094044566 0 0,0 0.056252591415849616,-0.686424097862549 l 18.932032797929143 1.715648007301455" fill="#ffe215" stroke="none" /><path d="M 79.16333360222342 97.38593545837743 l -10.73215969704464 -1.3464033825520554 a31.816286508382483,31.816286508382483 0 0,0 0.07285020716406149,-0.5428186609318612 l 10.707393490822746 1.530940385548576" fill="#ff750a" stroke="none" /><path d="M 79.21141760316559 97.0276538004421 l -13.353279142092289 -1.9092484399358431 a34.48908052656053,34.48908052656053 0 0,0 0.08908711234586839,-0.5869727615701593 l 13.318436136307119 2.1388203138980946" fill="#ff990e" stroke="none" /><path d="M 79.26566170972629 96.67025291283419 l -21.25374046483286 -3.4131583758982407 a42.52605709008127,42.52605709008127 0 0,0 0.12228902021689186,-0.7217567197046385 l 21.191839583095742 3.7785008839187073" fill="#fcff18" stroke="none" /><path d="M 79.32604984820605 96.31383870115002 l -55.721767134531184 -9.9351802634107 a77.60055776634525,77.60055776634525 0 0,0 0.24578785352473428,-1.3130085416911657 l 55.54249355709659 10.892866882564437" fill="#45ffee" stroke="none" /><path d="M 79.46518482838121 95.60439243477599 l -19.83832202069425 -4.24651878415906 a41.28772886207271,41.28772886207271 0 0,0 0.15474171473252848,-0.693676765344832 l 19.762285918959684 4.5873737190538515" fill="#fff216" stroke="none" /><path d="M 79.62865764111835 94.90015583598534 l -14.530304184495714 -3.637575064578426 a35.97870795644325,35.97870795644325 0 0,0 0.15557136461961932,-0.5994799294330013 l 14.465536488005787 3.887151419560291" fill="#ffad10" stroke="none" /><path d="M 79.71946130924805 94.55025226153421 l -13.002599171273232 -3.4940336895556134 a34.46387227481548,34.46387227481548 0 0,0 0.1588837511292071,-0.5715893882729298 l 12.940528649577663 3.7173343812474857" fill="#ff990e" stroke="none" /><path d="M 79.81627453868168 94.20196356495316 l -43.88101591099727 -12.605389899225008 a66.65566133452323,66.65566133452323 0 0,0 0.3262766147289618,-1.1000425440724149 l 43.6575333991566 13.358861830043962" fill="#37ff76" stroke="none" /><path d="M 79.91906864156998 93.8553929516997 l -22.10557993806881 -6.7641335887143335 a44.117313157119355,44.117313157119355 0 0,0 0.22845313698655237,-0.7242588746966977 l 21.985871317314054 7.143642629837445" fill="#e8ff1a" stroke="none" /><path d="M 80.14247586403 93.16781622104843 l -17.8330494203562 -6.135642597976264 a39.85904986257175,39.85904986257175 0 0,0 0.22880407918005755,-0.6468599429306912 l 17.724792260366335 6.4417001673335665" fill="#ffe015" stroke="none" /><path d="M 80.2630227832202 92.82701384747504 l -20.246832293497032 -7.3582821765776165 a42.542482087984524,42.542482087984524 0 0,0 0.2560559299844258,-0.6861025893592396 l 20.117171775010977 7.705707902966197" fill="#fcff18" stroke="none" /><path d="M 80.38941819471856 92.48833698450439 l -18.995335766143292 -7.275998364466267 a41.34116351313853,41.34116351313853 0 0,0 0.260265165325362,-0.6623464572744008 l 18.867277050936238 7.601893826636432" fill="#fff316" stroke="none" /><path d="M 80.65960295795068 91.81776055985345 l -20.977189125503138 -8.87470840608543 a43.77724550730774,43.77724550730774 0 0,0 0.29958080366180423,-0.6914737991626871 l 20.821317611998655 9.234481349834716" fill="#edff1a" stroke="none" /><path d="M 80.803312248108 91.48605970444005 l -20.36356397560868 -9.03146262177755 a43.276491080896754,43.276491080896754 0 0,0 0.30787654749724536,-0.6783651618273157 l 20.205085111148083 9.380649792446937" fill="#f3ff19" stroke="none" /><path d="M 80.95270993114464 91.15688171328213 l -28.189151371640254 -13.0874260370095 a52.079076165926196,52.079076165926196 0 0,0 0.3844968586580089,-0.8098484432579806 l 27.959696319140495 13.570716895908014" fill="#8bff24" stroke="none" /><path d="M 81.26839172434947 90.50648371742162 l -27.058241000971023 -13.713603644731743 a51.334985264401055,51.334985264401055 0 0,0 0.40625668094323836,-0.7847585986779267 l 26.81817488686767 14.177334965670005" fill="#94ff23" stroke="none" /><path d="M 81.6062741919709 89.86733742301443 l -26.477551417245657 -14.585848303698478 a51.229252385584914,51.229252385584914 0 0,0 0.43213669535275645,-0.7687229619243134 l 26.222557080600467 15.039454775557576" fill="#95ff23" stroke="none" /><line stroke="#e1ed5e" stroke-width="0.3" x1="26.266209847984243" x2="21.928928074336255" y1="57.711370442889674" y2="55.22380399835377" /><path d="M 25.398753493254645 57.213857153982495 a86.0,86.0 0 0,1 29.58750427330803,-30.492523968695096" fill="none" id="id119" stroke="none" /><text fill="#e1ed5e" style="font-size:6.75px; font-family:Arial;" text-anchor="middle"><textPath startOffset="21.46611528233685" xlink:href="#id119">November</textPath></text><path d="M 81.96595687620814 89.24020034530311 l -13.85742534066246 -8.26786979336541 a37.13647755837928,37.13647755837928 0 0,0 0.33225511621513865,-0.5461400504571324 l 13.713054426161104 8.505177617029616" fill="#ffbd11" stroke="none" /><path d="M 82.34701348167596 88.62581576622439 l -13.586816490616146 -8.754266806602665 a37.16288246789118,37.16288246789118 0 0,0 0.35110671054417936,-0.5347596082056083 l 13.434113144714047 8.98684447878594" fill="#ffbd11" stroke="none" /><path d="M 82.54541684631803 88.32363383020206 l -17.90560827731003 -11.97808259859439 a42.542638429849376,42.542638429849376 0 0,0 0.41241144524848417,-0.6051629070026944 l 17.696772366392803 12.284523528867501" fill="#fcff18" stroke="none" /><path d="M 82.7489923806493 88.02491185347247 l -11.456312727307171 -7.952599510175863 a34.94600087032514,34.94600087032514 0 0,0 0.34727568428378786,-0.49119682744296755 l 11.317724423219506 8.148622837950617" fill="#ffa00e" stroke="none" /><path d="M 83.39014120810768 87.1503855733568 l -15.240721206922677 -11.79043082464456 a40.268986531155996,40.268986531155996 0 0,0 0.4288568817290181,-0.5446046886976467 l 15.035510244599688 12.051027907295254" fill="#ffe515" stroke="none" /><path d="M 83.6137871275137 86.86637796730984 l -16.846436481305606 -13.502493289019467 a42.58980655630523,42.58980655630523 0 0,0 0.463420715251928,-0.5680990014166944 l 16.611517273977288 13.790476460044243" fill="#fbff18" stroke="none" /><path d="M 83.84228863543731 86.58626213691792 l -14.976472275336551 -12.433101983470047 a40.464756529309355,40.464756529309355 0 0,0 0.44952372505311733,-0.5320943033812179 l 14.76023793679631 12.689055236480382" fill="#ffe815" stroke="none" /><path d="M 84.31358615837235 86.03803664274999 l -14.16301341533287 -12.60603451684784 a39.96056579437592,39.96056579437592 0 0,0 0.46174692450410776,-0.5098724868445023 l 13.943922850212717 12.847959790961898" fill="#ffe215" stroke="none" /><path d="M 84.80347519578584 85.50635884689758 l -20.43802769581947 -19.492709229035746 a49.243206071245154,49.243206071245154 0 0,0 0.5902987970459034,-0.6083547990849772 l 20.09946463507045 19.84162822367085" fill="#abff21" stroke="none" /><path d="M 85.31137513191541 84.99185889309783 l -15.181562660222793 -15.511801593011366 a42.70474218845322,42.70474218845322 0 0,0 0.5297762341573026,-0.5096443175181594 l 14.912303182453064 15.77082899729184" fill="#faff18" stroke="none" /><path d="M 85.83668400450813 84.49514656593479 l -14.505228744508297 -15.879151872540033 a42.506955273159925,42.506955273159925 0 0,0 0.544471615201405,-0.4888319920318121 l 14.22974614171092 16.126482873341125" fill="#fcff18" stroke="none" /><path d="M 86.10567301691215 84.25364557470407 l -7.3294512806779375 -8.30642158839169 a32.0777929065284,32.0777929065284 0 0,0 0.4171735318332117,-0.36176877590951323 l 7.185383950197952 8.431355357720882" fill="#ff780b" stroke="none" /><path d="M 86.65592168130627 83.78471172551755 l -13.705988856757031 -16.655070143571773 a42.56955011187864,42.56955011187864 0 0,0 0.5698169457660607,-0.46075234203042403 l 13.417268512426471 16.888528582866332" fill="#fcff18" stroke="none" /><path d="M 86.93701828274178 83.55741782278169 l -13.348015965971367 -16.801359304770713 a42.45821998013423,42.45821998013423 0 0,0 0.576152879057994,-0.4496964608902974 l 13.056830531753947 17.028634154884234" fill="#fdff18" stroke="none" /><path d="M 87.22198572758235 83.33499621200491 l -13.102587443811593 -17.088310024429443 a42.53341907857981,42.53341907857981 0 0,0 0.5848423025117238,-0.4404910971993476 l 12.80649898754148 17.311317711134645" fill="#fcff18" stroke="none" /><path d="M 87.80319425747018 82.90503203632743 l -12.481099623467381 -17.493432519843125 a42.4894864791419,42.4894864791419 0 0,0 0.5990387543597627,-0.4196649294738359 l 12.178129729523958 17.705682292080905" fill="#fdff18" stroke="none" /><path d="M 88.09926311788651 82.69761687909137 l -10.69174600349677 -15.544641261835157 a39.86661878987428,39.86661878987428 0 0,0 0.5687548494919228,-0.38402581324389334 l 10.422586459598307 15.726378987377714" fill="#ffe015" stroke="none" /><path d="M 88.70189139769569 82.29822771554957 l -17.30426170600988 -27.112157534744142 a53.16374604082776,53.16374604082776 0 0,0 0.7756358845264599,-0.4857031197334986 l 16.835006669111173 27.40600499580057" fill="#7fff26" stroke="none" /><line stroke="#e1ed5e" stroke-width="0.3" x1="56.762969772571076" x2="54.21961505331055" y1="26.818313649435495" y2="22.513508569990535" /><path d="M 56.25429882871897 25.957352633546506 a86.0,86.0 0 0,1 42.265352541879196,-11.944610805530505" fill="none" id="id120" stroke="none" /><text fill="#e1ed5e" style="font-size:6.75px; font-family:Arial;" text-anchor="middle"><textPath startOffset="22.20632615414155" xlink:href="#id120">December</textPath></text><path d="M 89.3179101791058 81.91981866633112 l -7.8185593567772225 -13.233456496694414 a36.37056411669241,36.37056411669241 0 0,0 0.541753871322903,-0.31381881006301876 l 7.589608752989 13.36607946414748" fill="#ffb310" stroke="none" /><path d="M 89.94658935756843 81.56283822128135 l -9.14970290998954 -16.779833111232442 a40.1122961096223,40.1122961096223 0 0,0 0.6090478242703076,-0.32533225506332336 l 8.859510039190926 16.934844092797515" fill="#ffe315" stroke="none" /><path d="M 90.26544431104013 81.39251694778311 l -9.994756569810912 -19.104853824475008 a42.56132181811532,42.56132181811532 0 0,0 0.6520789966351492,-0.33402018896216 l 9.664417085586999 19.274066538749672" fill="#fcff18" stroke="none" /><path d="M 90.91171255644093 81.06846463323043 l -13.001381588625867 -27.082782855462572 a51.041854976169446,51.041854976169446 0 0,0 0.7953336706613403,-0.37341982263571466 l 12.533269706664917 27.30256766073829" fill="#97ff23" stroke="none" /><path d="M 91.56875222667455 80.76684994638697 l -6.9560420689959725 -15.867947958487797 a38.32565420637613,38.32565420637613 0 0,0 0.606487494575761,-0.2596662938865822 l 6.681870816629903 15.985333780337166" fill="#ffcc13" stroke="none" /><path d="M 92.23578459929587 80.48803036053334 l -7.0343870533012 -17.67786434722338 a40.02602136797084,40.02602136797084 0 0,0 0.6423544304328027,-0.2492235394330894 l 6.7290494578687206 17.796330590547022" fill="#ffe215" stroke="none" /><path d="M 92.57280143429618 80.3572730644239 l -5.152437737726989 -13.626662413749285 a35.5682374767657,35.5682374767657 0 0,0 0.5745416568208283,-0.21160854096360973 l 4.917113755133591 13.713334222519217" fill="#ffa80f" stroke="none" /><path d="M 93.25333710446033 80.11325718540243 l -7.541450547794073 -22.22949179692047 a44.47389575494826,44.47389575494826 0 0,0 0.7270786844987681,-0.23970641086598388 l 7.157689041052897 22.356011932045686" fill="#e4ff1a" stroke="none" /><path d="M 93.59665428221793 80.00007090966166 l -6.745973974878274 -21.070079156926294 a43.12366155384038,43.12366155384038 0 0,0 0.7089008928884611,-0.2202589581731691 l 6.382287709279085 21.18307824998199" fill="#f5ff19" stroke="none" /><path d="M 93.94186890950719 79.89281104454417 l -4.650689163711417 -15.43583068623056 a37.121221376540916,37.121221376540916 0 0,0 0.613401283224483,-0.17906865514392922 l 4.384297662763513 15.513597670293187" fill="#ffbd11" stroke="none" /><path d="M 94.28887869178378 79.79150937346287 l -5.958935092812262 -21.085366159881342 a42.911220265804886,42.911220265804886 0 0,0 0.7125349086986638,-0.1947627067094579 l 5.595102294889877 21.184815407417098" fill="#f7ff18" stroke="none" /><path d="M 96.04723909329186 79.375362276772 l -4.137583567718017 -21.589001750382444 a42.98191516583272,42.98191516583272 0 0,0 0.7278370827291265,-0.1330075746511967 l 3.7653513638859972 21.657024806384378" fill="#f6ff19" stroke="none" /><path d="M 97.83486435360386 79.11191278185805 l -1.5963142681375757 -15.400398453520877 a36.482909667432274,36.482909667432274 0 0,0 0.625203927616456,-0.059370646304112075 l 1.3309852134308833 15.425594644340169" fill="#ffb410" stroke="none" /><path d="M 98.55514903715128 79.0497635885617 l -2.027480965762961 -29.39833010089692 a50.468160644801586,50.468160644801586 0 0,0 0.8671822707572846,-0.05231080274413417 l 1.5211366461660532 29.42887417302136" fill="#9dff22" stroke="none" /><path d="M 98.91598698831166 79.02799685794201 l -0.8399251127372442 -16.249723862616626 a37.271416650258175,37.271416650258175 0 0,0 0.6409958958608537,-0.027602631646456318 l 0.5600883844870664 16.261774220787277" fill="#ffbf11" stroke="none" /><path d="M 99.27714615592234 79.0124445844662 l -0.7410123882351001 -21.514776035430934 a42.52753323570239,42.52753323570239 0 0,0 0.7318246562974946,-0.018900871779119956 l 0.3705610967427264 21.524343699352414" fill="#fcff18" stroke="none" /><path d="M 99.63851952072746 79.00311137660856 l -0.29299757398792414 -17.019003184705756 a38.021525107327705,38.021525107327705 0 0,0 0.6544780532604557,-0.005633299230508246 l 4.1690712478590365e-15 17.021525107327705" fill="#ffc812" stroke="none" /></svg>